<svg width="48" height="13" viewBox="0 0 48 13" fill="none" xmlns="http://www.w3.org/2000/svg">
<path fill-rule="evenodd" clip-rule="evenodd" d="M5.75247 0.5L0.491577 12.4846H6.7896L7.57037 10.5737H9.35504L10.1358 12.4846H17.0682V11.0262L17.6859 12.4846H21.2718L21.8895 10.9953V12.4846H36.307L38.06 10.6234L39.7016 12.4846L47.1066 12.5L41.8291 6.52575L47.1066 0.5H39.8164L38.1099 2.32682L36.52 0.5H20.8358L19.489 3.59332L18.1106 0.5H11.8257V1.90879L11.1266 0.5H5.75247ZM6.97101 2.20082H10.041L13.5305 10.3276V2.20082H16.8935L19.5888 8.0277L22.0728 2.20082H25.419V10.8005H23.3829L23.3663 4.06185L20.3978 10.8005H18.5765L15.5914 4.06185V10.8005H11.4027L10.6086 8.8726H6.31842L5.52596 10.7989H3.28171L6.97101 2.20082ZM35.5619 2.20082H27.2828V10.7955H35.4338L38.0609 7.94707L40.5931 10.7955H43.2402L39.3927 6.52305L43.2402 2.20082H40.708L38.0941 5.01652L35.5619 2.20082ZM8.46487 3.65714L7.05141 7.09162H9.87669L8.46487 3.65714ZM29.3266 5.55185V3.98197V3.98047H34.4926L36.7467 6.4911L34.3927 9.01546H29.3266V7.30161H33.8433V5.55185H29.3266Z" fill="white"/>
</svg>
