<svg width="33" height="15" viewBox="0 0 33 15" fill="none" xmlns="http://www.w3.org/2000/svg">
<path fill-rule="evenodd" clip-rule="evenodd" d="M6.08498 2.30494C5.70148 2.77782 5.08789 3.1508 4.47429 3.09751C4.39759 2.45813 4.698 1.77878 5.04954 1.35918C5.43304 0.872976 6.10416 0.526641 6.64744 0.5C6.71136 1.16603 6.46209 1.81874 6.08498 2.30494ZM6.64156 3.22416C6.101 3.19174 5.60775 3.39356 5.20935 3.55658C4.95296 3.66149 4.73586 3.75032 4.57068 3.75032C4.38532 3.75032 4.15925 3.65674 3.90542 3.55166C3.57282 3.41398 3.19257 3.25657 2.79381 3.26412C1.87981 3.27744 1.02972 3.81693 0.563137 4.6761C-0.395606 6.39446 0.313864 8.93868 1.24065 10.3373C1.69445 11.03 2.23774 11.7893 2.9536 11.7626C3.26854 11.7503 3.49508 11.6501 3.72954 11.5464C3.99946 11.4271 4.27986 11.3031 4.71769 11.3031C5.14034 11.3031 5.40847 11.4238 5.66587 11.5398C5.91061 11.65 6.14565 11.7558 6.49456 11.7493C7.23598 11.736 7.70257 11.0567 8.15638 10.364C8.64611 9.62056 8.86132 8.89502 8.89398 8.78491L8.8978 8.77218C8.89702 8.77136 8.89097 8.76848 8.8803 8.76338C8.71658 8.68528 7.4653 8.08837 7.4533 6.4877C7.44125 5.14417 8.44578 4.46346 8.60392 4.3563C8.61354 4.34978 8.62003 4.34538 8.62296 4.34309C7.9838 3.35737 6.98671 3.2508 6.64156 3.22416ZM11.7746 11.6758V1.29244H15.5137C17.4439 1.29244 18.7926 2.67778 18.7926 4.70251C18.7926 6.72723 17.4184 8.12589 15.4625 8.12589H13.3213V11.6758H11.7746ZM13.3205 2.65174H15.1038C16.446 2.65174 17.213 3.39769 17.213 4.70977C17.213 6.02184 16.446 6.77445 15.0974 6.77445H13.3205V2.65174ZM23.8989 10.4298C23.4899 11.2424 22.5886 11.7552 21.6171 11.7552C20.179 11.7552 19.1755 10.8627 19.1755 9.51734C19.1755 8.18528 20.147 7.41935 21.9431 7.30613L23.8733 7.18624V6.61346C23.8733 5.7676 23.3428 5.30804 22.3969 5.30804C21.6171 5.30804 21.0483 5.72764 20.9332 6.36703H19.5398C19.5846 5.02165 20.799 4.04259 22.4416 4.04259C24.2121 4.04259 25.3626 5.00833 25.3626 6.50689V11.6753H23.9309V10.4298H23.8989ZM22.0325 10.5236C21.208 10.5236 20.6839 10.1107 20.6839 9.47796C20.6839 8.82525 21.1888 8.44562 22.154 8.38567L23.8733 8.27245V8.85855C23.8733 9.83095 23.0807 10.5236 22.0325 10.5236ZM30.1117 12.0826C29.4918 13.9009 28.7823 14.5003 27.2739 14.5003C27.1588 14.5003 26.7753 14.487 26.6858 14.4603V13.2149C26.7817 13.2282 27.0182 13.2415 27.1396 13.2415C27.8235 13.2415 28.207 12.9418 28.4435 12.1625L28.5841 11.703L25.9636 4.14355H27.5807L29.4023 10.2777H29.4342L31.2558 4.14355H32.8282L30.1117 12.0826Z" fill="white"/>
</svg>
