<svg width="281" height="96" viewBox="0 0 281 96" fill="none" xmlns="http://www.w3.org/2000/svg">
<g clip-path="url(#clip0_1_138)">
<path d="M140.499 0C132.726 0 125.186 2.36128 119.16 6.65328L119.147 0.74707C119.144 0.333988 118.765 7.15251e-06 118.294 7.15251e-06C117.822 7.15251e-06 117.444 0.33692 117.444 0.750002L117.463 8.25295C117.463 8.66603 117.842 9.00001 118.313 9.00294L126.783 9.01759C127.252 9.01759 127.633 8.68361 127.633 8.2676C127.633 7.85452 127.255 7.5176 126.783 7.5176L120.661 7.50588C126.315 3.62406 133.305 1.50008 140.5 1.50008C158.31 1.50008 172.8 14.2852 172.8 29.9999C172.8 35.7127 170.894 41.2206 167.285 45.9343C167.022 46.277 167.125 46.7428 167.514 46.9743C167.66 47.0622 167.826 47.1032 167.988 47.1032C168.261 47.1032 168.53 46.986 168.692 46.7721C172.491 41.8122 174.499 36.0112 174.499 30C174.499 13.4589 159.246 0 140.499 0Z" fill="white"/>
<path d="M140.5 59.9995C148.269 59.9995 155.767 57.6616 161.79 53.3872L161.803 59.2495C161.803 59.6655 162.185 59.9995 162.653 59.9995C163.124 59.9995 163.503 59.6626 163.503 59.2495L163.486 51.7323C163.486 51.3192 163.104 50.9823 162.636 50.9823H154.163C153.691 50.9823 153.313 51.3192 153.313 51.7323C153.313 52.1454 153.691 52.4823 154.163 52.4823H160.339C154.687 56.37 147.721 58.4998 140.5 58.4998C122.69 58.4998 108.2 45.7146 108.2 30C108.2 24.2871 110.106 18.7793 113.715 14.0656C113.977 13.7228 113.874 13.257 113.486 13.0256C113.094 12.7941 112.569 12.885 112.304 13.2277C108.509 18.1877 106.5 23.9887 106.5 29.9999C106.5 46.541 121.753 59.9995 140.5 59.9995Z" fill="white"/>
<path d="M134.994 31.444C129.997 27.0407 118.306 28.0836 117.808 28.1305C117.41 28.1686 117.098 28.444 117.054 28.7955C117.001 29.2321 115.816 39.5355 120.813 43.9417C122.769 45.6643 125.335 46.5256 127.905 46.5256C130.472 46.5256 133.042 45.6643 134.997 43.9417C135.087 43.8626 135.163 43.7776 135.25 43.6985C137.501 45.7493 139.051 47.3987 139.619 48.0198V49.0335C139.619 49.4465 139.998 49.7835 140.469 49.7835C140.941 49.7835 141.319 49.4465 141.319 49.0335V48.0872C141.824 47.5306 143.408 45.8314 145.752 43.6956C145.838 43.7776 145.914 43.8626 146.004 43.9388C147.96 45.6614 150.526 46.5227 153.096 46.5227C155.663 46.5227 158.229 45.6614 160.185 43.9388C165.182 39.5355 163.997 29.2321 163.944 28.7926C163.9 28.4411 163.585 28.1657 163.19 28.1276C162.692 28.0807 151.001 27.0378 146.004 31.4411C144.111 33.111 143.069 35.3287 143.069 37.69C143.069 39.4214 143.637 41.0767 144.682 42.4946C143.288 43.7602 142.146 44.8852 141.319 45.7348V30.1604C146.449 29.7767 150.496 25.9798 150.496 21.36C150.496 15.1315 141.392 8.58384 141.004 8.3086C140.692 8.08594 140.247 8.08594 139.934 8.3086C139.546 8.58399 130.442 15.1318 130.442 21.36C130.442 25.9801 134.486 29.7772 139.619 30.1604V45.6733C138.796 44.8296 137.68 43.731 136.319 42.4976C137.368 41.0796 137.932 39.4243 137.932 37.6929C137.932 35.3317 136.89 33.1138 134.994 31.444ZM147.206 32.5045C150.984 29.1735 159.766 29.4225 162.31 29.5719C162.48 31.8102 162.762 39.5506 158.983 42.8783C155.736 45.7406 150.454 45.7406 147.207 42.8783C147.117 42.7992 147.034 42.7113 146.948 42.6293C150.089 39.8812 154.276 36.6645 158.924 34.2654C159.329 34.0574 159.465 33.5974 159.23 33.24C158.991 32.8826 158.469 32.7624 158.068 32.9704C153.32 35.4226 149.103 38.6306 145.919 41.3989C145.175 40.2856 144.77 39.0171 144.77 37.6899C144.766 35.7329 145.633 33.8902 147.207 32.5044L147.206 32.5045ZM132.138 21.3634C132.138 16.6525 138.55 11.3554 140.465 9.87946C142.381 11.356 148.793 16.6528 148.793 21.3634C148.793 25.1573 145.509 28.2862 141.315 28.6641V16.8547C141.315 16.4416 140.937 16.1047 140.465 16.1047C139.994 16.1047 139.615 16.4416 139.615 16.8547V28.6611C135.422 28.2861 132.138 25.1573 132.138 21.3634ZM133.792 42.8815C130.544 45.7438 125.262 45.7438 122.015 42.8815C118.237 39.5504 118.519 31.8131 118.688 29.5751C121.228 29.4257 130.01 29.1766 133.792 32.5077C135.366 33.8935 136.23 35.7362 136.23 37.6962C136.23 39.0233 135.824 40.2918 135.081 41.4051C131.897 38.6366 127.68 35.4256 122.932 32.9767C122.527 32.7657 122.005 32.8888 121.77 33.2462C121.534 33.6036 121.67 34.0635 122.075 34.2716C126.724 36.671 130.911 39.8878 134.051 42.6355C133.965 42.7146 133.885 42.8025 133.792 42.8816L133.792 42.8815Z" fill="white"/>
</g>
<path d="M81.3184 76.768H71.6464V81.472H80.3824V83.728H71.6464V88.744H81.3184V91H69.1984V74.512H81.3184V76.768ZM90.1465 91.288C86.6185 91.288 83.6185 88.312 83.6185 84.784C83.6185 81.256 86.6185 78.304 90.1705 78.304C91.9465 78.304 93.5545 79.048 94.7305 80.224L93.1225 81.712C92.3785 80.872 91.2985 80.368 90.1465 80.368C87.8905 80.368 86.0185 82.384 86.0185 84.784C86.0185 87.208 87.8905 89.224 90.1705 89.224C91.3225 89.224 92.4265 88.696 93.1945 87.832L94.8025 89.296C93.6025 90.52 91.9945 91.288 90.1465 91.288ZM102.967 91.288C99.4154 91.288 96.4154 88.312 96.4154 84.784C96.4154 81.256 99.4154 78.304 102.967 78.304C106.495 78.304 109.471 81.256 109.471 84.784C109.471 88.312 106.495 91.288 102.967 91.288ZM102.967 89.224C105.199 89.224 107.095 87.208 107.095 84.784C107.095 82.384 105.199 80.368 102.967 80.368C100.687 80.368 98.7914 82.384 98.7914 84.784C98.7914 87.208 100.687 89.224 102.967 89.224ZM111.771 85.528V83.368H118.107V85.528H111.771ZM133.303 76.768H123.631V81.568H132.367V83.824H123.631V91H121.183V74.512H133.303V76.768ZM138.419 80.968C139.211 79.336 140.891 78.304 143.027 78.304V80.368C140.459 80.368 138.635 81.784 138.419 83.944V91H136.043V78.592H138.419V80.968ZM146.521 76.528C145.705 76.528 145.081 75.856 145.081 75.088C145.081 74.344 145.705 73.672 146.521 73.672C147.289 73.672 147.937 74.344 147.937 75.088C147.937 75.856 147.289 76.528 146.521 76.528ZM145.321 91V78.592H147.697V91H145.321ZM156.822 89.176C158.118 89.176 159.63 88.6 160.374 87.832L161.862 89.368C160.758 90.544 158.598 91.288 156.846 91.288C153.39 91.288 150.462 88.576 150.462 84.76C150.462 81.04 153.222 78.304 156.654 78.304C160.446 78.304 162.63 81.184 162.63 85.624H152.862C153.174 87.688 154.686 89.176 156.822 89.176ZM156.75 80.416C154.83 80.416 153.27 81.712 152.886 83.728H160.326C160.062 81.808 158.886 80.416 156.75 80.416ZM171.696 78.304C174.432 78.304 176.352 80.296 176.352 83.104V91H174.024V83.512C174.024 81.664 172.848 80.368 171.168 80.368C169.44 80.368 167.952 81.496 167.76 82.96V91H165.384V78.592H167.76V80.392C168.504 79.168 170.016 78.304 171.696 78.304ZM189.303 74.224H191.655V91H189.303V88.84C188.343 90.376 186.807 91.288 184.887 91.288C181.623 91.288 179.175 88.6 179.175 84.784C179.175 80.992 181.623 78.304 184.887 78.304C186.807 78.304 188.343 79.216 189.303 80.728V74.224ZM185.463 89.224C187.695 89.224 189.303 87.376 189.303 84.784C189.303 82.192 187.695 80.368 185.463 80.368C183.183 80.368 181.575 82.192 181.575 84.784C181.575 87.376 183.183 89.224 185.463 89.224ZM195.22 91V74.224H197.572V91H195.22ZM203.217 95.32C202.377 95.32 201.513 95.128 200.865 94.792L201.393 92.968C201.873 93.232 202.425 93.352 202.905 93.352C203.673 93.352 204.201 93.112 204.609 92.392L205.233 91.072L199.905 78.592H202.449L206.433 88.384L210.201 78.592H212.673L207.201 92.128C206.313 94.36 204.993 95.296 203.217 95.32Z" fill="white"/>
<defs>
<clipPath id="clip0_1_138">
<rect width="68" height="60" fill="white" transform="translate(106.5)"/>
</clipPath>
</defs>
</svg>
