<svg width="35" height="15" viewBox="0 0 35 15" fill="none" xmlns="http://www.w3.org/2000/svg">
<path fill-rule="evenodd" clip-rule="evenodd" d="M16.5084 11.451V7.34252H18.6289C19.4978 7.34252 20.2312 7.05136 20.8291 6.47715L20.9726 6.33157C22.0647 5.1427 21.9929 3.29064 20.8291 2.19073C20.2471 1.60843 19.45 1.29301 18.6289 1.30919H15.225V11.451H16.5084ZM16.5091 6.09836V2.556H18.6618C19.1242 2.556 19.5627 2.73392 19.8896 3.05743C20.5833 3.73678 20.5992 4.86905 19.9295 5.57266C19.6026 5.92043 19.1402 6.11453 18.6618 6.09836H16.5091ZM26.9594 5.05486C26.4094 4.54534 25.6601 4.28654 24.7114 4.28654C23.4918 4.28654 22.575 4.73944 21.9692 5.63716L23.1011 6.35696C23.5157 5.7423 24.0817 5.43497 24.7991 5.43497C25.2535 5.43497 25.6919 5.60481 26.0347 5.91214C26.3695 6.20329 26.5609 6.62385 26.5609 7.06867V7.36791C26.0666 7.09293 25.4448 6.94735 24.6795 6.94735C23.7867 6.94735 23.0693 7.15763 22.5352 7.58627C22.0011 8.01491 21.73 8.58104 21.73 9.30084C21.7141 9.95593 21.9931 10.5787 22.4873 10.9992C22.9895 11.4521 23.6273 11.6786 24.3766 11.6786C25.2615 11.6786 25.963 11.2823 26.4971 10.4897H26.5529V11.4521H27.7805V7.1738C27.7805 6.27608 27.5095 5.56438 26.9594 5.05486ZM23.4763 10.1742C23.2132 9.98011 23.0537 9.66469 23.0537 9.32501C23.0537 8.9449 23.2291 8.62948 23.5719 8.37877C23.9227 8.12805 24.3613 7.99865 24.8795 7.99865C25.5971 7.99056 26.1552 8.15232 26.5538 8.47582C26.5538 9.02577 26.3385 9.50294 25.916 9.90732C25.5333 10.2955 25.015 10.5139 24.4729 10.5139C24.1141 10.522 23.7633 10.4007 23.4763 10.1742ZM30.539 14.5008L34.8278 4.51265H33.4328L31.4478 9.49459H31.4239L29.3911 4.51265H27.9961L30.8101 11.007L29.2157 14.5008H30.539Z" fill="white"/>
<path d="M12.0781 6.45325C12.0781 6.05696 12.0462 5.66066 11.9825 5.27246H6.5697V7.51272H9.67068C9.54314 8.23251 9.12861 8.87952 8.52276 9.2839V10.7397H10.3722C11.4563 9.72872 12.0781 8.23251 12.0781 6.45325Z" fill="#4285F4"/>
<path d="M6.56951 12.1464C8.11602 12.1464 9.42337 11.6288 10.372 10.7392L8.52257 9.28342C8.00442 9.63927 7.34277 9.84146 6.56951 9.84146C5.07084 9.84146 3.80334 8.81434 3.34896 7.43945H1.44373V8.94374C2.41627 10.909 4.40122 12.1464 6.56951 12.1464Z" fill="#34A853"/>
<path d="M3.34945 7.43931C3.11026 6.71952 3.11026 5.93502 3.34945 5.20714V3.71094H1.44391C0.6227 5.35272 0.6227 7.29373 1.44391 8.93551L3.34945 7.43931Z" fill="#FBBC04"/>
<path d="M6.56951 2.80531C7.3906 2.78914 8.17979 3.10455 8.7697 3.67877L10.4119 2.01273C9.36757 1.02604 7.99644 0.484177 6.56951 0.500352C4.40122 0.500352 2.41627 1.74584 1.44373 3.71112L3.34896 5.21541C3.80334 3.83243 5.07084 2.80531 6.56951 2.80531Z" fill="#EA4335"/>
</svg>
