<svg width="281" height="104" viewBox="0 0 281 104" fill="none" xmlns="http://www.w3.org/2000/svg">
<path d="M167.461 14.0622C166.236 12.4844 164.406 11.6875 161.997 11.6875C155.128 11.6875 145.72 19.3189 141.562 26.9025V14.875C141.562 14.5932 141.451 14.323 141.251 14.1237C141.052 13.9244 140.782 13.8125 140.5 13.8125C140.218 13.8125 139.948 13.9244 139.749 14.1237C139.549 14.323 139.437 14.5932 139.437 14.875V26.9025C135.28 19.3189 125.872 11.6875 119.003 11.6875C116.612 11.6875 114.753 12.4844 113.539 14.0622C110.591 17.85 111.945 25.2848 113.672 32.0583C114.647 35.8886 116.474 38.6033 119.112 40.128C120.158 40.7276 121.306 41.1283 122.499 41.31C121.614 42.4905 120.985 43.8422 120.652 45.2791C120.318 46.716 120.287 48.2065 120.562 49.6559C120.836 51.1053 121.409 52.4817 122.244 53.6975C123.079 54.9133 124.159 55.9419 125.413 56.7177C126.668 57.4936 128.07 57.9997 129.531 58.2038C130.992 58.408 132.479 58.3057 133.898 57.9036C135.318 57.5014 136.637 56.8081 137.774 55.8679C138.911 54.9276 139.839 53.761 140.5 52.4423C141.16 53.7622 142.088 54.93 143.225 55.8714C144.361 56.8128 145.681 57.5072 147.101 57.9102C148.52 58.3132 150.008 58.4161 151.47 58.2123C152.932 58.0084 154.335 57.5024 155.59 56.7263C156.845 55.9503 157.925 54.9212 158.76 53.7048C159.596 52.4884 160.169 51.1113 160.443 49.6612C160.717 48.2111 160.686 46.7198 160.351 45.2825C160.017 43.8451 159.387 42.4931 158.501 41.3127C159.694 41.13 160.842 40.7283 161.888 40.128C164.526 38.6033 166.353 35.878 167.328 32.0583C169.047 25.2848 170.409 17.85 167.461 14.0622ZM130.937 56.3125C128.773 56.2893 126.698 55.444 125.133 53.9478C123.568 52.4517 122.63 50.4166 122.51 48.255C122.39 46.0933 123.096 43.9668 124.485 42.3064C125.874 40.6459 127.843 39.5757 129.992 39.3125C130.131 39.2972 130.267 39.2545 130.39 39.1869C130.513 39.1193 130.621 39.0282 130.709 38.9187C130.797 38.8091 130.862 38.6834 130.901 38.5486C130.941 38.4138 130.953 38.2727 130.937 38.1331C130.922 37.9936 130.879 37.8585 130.812 37.7354C130.744 37.6124 130.653 37.5039 130.544 37.4161C130.434 37.3282 130.308 37.2629 130.174 37.2237C130.039 37.1844 129.898 37.1722 129.758 37.1875C127.845 37.4023 126.028 38.1373 124.504 39.3125C118.448 39.6419 116.355 34 115.738 31.5456C114.238 25.6381 112.817 18.4609 115.22 15.377C116.028 14.3198 117.268 13.8125 119.003 13.8125C126.834 13.8125 139.437 26.2119 139.437 33.9123V47.8125C139.437 50.0668 138.542 52.2289 136.948 53.8229C135.354 55.417 133.192 56.3125 130.937 56.3125ZM165.267 31.535C164.645 33.9841 162.552 39.6286 156.501 39.3019C154.974 38.13 153.155 37.3988 151.242 37.1875C150.96 37.1565 150.677 37.2387 150.456 37.4161C150.235 37.5934 150.093 37.8513 150.062 38.1331C150.031 38.4149 150.114 38.6975 150.291 38.9187C150.468 39.1398 150.726 39.2815 151.008 39.3125C152.645 39.49 154.195 40.1374 155.472 41.1766C156.748 42.2158 157.697 43.6025 158.203 45.169C158.709 46.7355 158.75 48.4151 158.323 50.0047C157.895 51.5944 157.016 53.0263 155.793 54.1275C154.569 55.2287 153.053 55.9521 151.427 56.2104C149.801 56.4686 148.135 56.2507 146.63 55.583C145.126 54.9152 143.846 53.8262 142.947 52.4473C142.048 51.0684 141.567 49.4587 141.562 47.8125V33.9123C141.562 26.2092 154.166 13.8125 161.997 13.8125C163.732 13.8125 164.972 14.3198 165.785 15.3664C168.183 18.4503 166.768 25.6275 165.267 31.535Z" fill="#F2E9E6"/>
<path d="M29.3998 82.512H31.8238V99H29.3998V91.728H20.3998V99H17.9758V82.512H20.3998V89.472H29.3998V82.512ZM40.5493 86.304C43.8853 86.304 45.7333 88.416 45.7333 91.488V99H43.4053V97.296C42.4933 98.592 40.7893 99.288 39.2773 99.288C36.6373 99.288 34.6933 97.752 34.6933 95.328C34.6933 92.856 36.9253 91.2 39.6613 91.2C40.8853 91.2 42.2053 91.464 43.4053 91.872V91.488C43.4053 89.928 42.6853 88.272 40.2133 88.272C38.9893 88.272 37.7893 88.752 36.7093 89.304L35.8453 87.552C37.6213 86.664 39.1813 86.304 40.5493 86.304ZM39.7333 97.416C41.2693 97.416 42.9973 96.648 43.4053 95.112V93.456C42.3973 93.144 41.2453 92.976 40.0213 92.976C38.3653 92.976 36.9733 93.912 36.9733 95.256C36.9733 96.6 38.1733 97.416 39.7333 97.416ZM56.0574 86.304C59.3214 86.304 61.7694 88.992 61.7694 92.784C61.7694 96.6 59.3214 99.288 56.0574 99.288C54.1374 99.288 52.6014 98.376 51.6414 96.84V103.128H49.2894V86.592H51.6414V88.728C52.6014 87.216 54.1374 86.304 56.0574 86.304ZM55.4814 97.224C57.7614 97.224 59.3694 95.376 59.3694 92.784C59.3694 90.192 57.7614 88.368 55.4814 88.368C53.2494 88.368 51.6414 90.192 51.6414 92.784C51.6414 95.376 53.2494 97.224 55.4814 97.224ZM71.5262 86.304C74.7902 86.304 77.2382 88.992 77.2382 92.784C77.2382 96.6 74.7902 99.288 71.5262 99.288C69.6062 99.288 68.0702 98.376 67.1102 96.84V103.128H64.7582V86.592H67.1102V88.728C68.0702 87.216 69.6062 86.304 71.5262 86.304ZM70.9502 97.224C73.2302 97.224 74.8382 95.376 74.8382 92.784C74.8382 90.192 73.2302 88.368 70.9502 88.368C68.7182 88.368 67.1102 90.192 67.1102 92.784C67.1102 95.376 68.7182 97.224 70.9502 97.224ZM81.2829 84.528C80.4669 84.528 79.8429 83.856 79.8429 83.088C79.8429 82.344 80.4669 81.672 81.2829 81.672C82.0509 81.672 82.6989 82.344 82.6989 83.088C82.6989 83.856 82.0509 84.528 81.2829 84.528ZM80.0829 99V86.592H82.4589V99H80.0829ZM92.208 86.304C94.944 86.304 96.864 88.296 96.864 91.104V99H94.536V91.512C94.536 89.664 93.36 88.368 91.68 88.368C89.952 88.368 88.464 89.496 88.272 90.96V99H85.896V86.592H88.272V88.392C89.016 87.168 90.528 86.304 92.208 86.304ZM105.951 97.176C107.247 97.176 108.759 96.6 109.503 95.832L110.991 97.368C109.887 98.544 107.727 99.288 105.975 99.288C102.519 99.288 99.5912 96.576 99.5912 92.76C99.5912 89.04 102.351 86.304 105.783 86.304C109.575 86.304 111.759 89.184 111.759 93.624H101.991C102.303 95.688 103.815 97.176 105.951 97.176ZM105.879 88.416C103.959 88.416 102.399 89.712 102.015 91.728H109.455C109.191 89.808 108.015 88.416 105.879 88.416ZM119.001 99.288C117.177 99.288 115.185 98.64 113.697 97.44L114.825 95.736C116.145 96.696 117.561 97.248 119.025 97.248C120.417 97.248 121.377 96.6 121.377 95.64C121.377 94.488 120.105 94.128 118.569 93.696C115.713 92.904 114.297 92.088 114.297 90.072C114.273 87.792 116.169 86.304 118.809 86.304C120.417 86.304 122.049 86.856 123.393 87.744L122.337 89.496C121.137 88.752 119.889 88.344 118.809 88.344C117.585 88.344 116.625 88.872 116.625 89.808C116.625 90.768 117.393 91.056 119.481 91.704C121.521 92.304 123.705 92.976 123.705 95.448C123.705 97.8 121.713 99.288 119.001 99.288ZM130.954 99.288C129.13 99.288 127.138 98.64 125.65 97.44L126.778 95.736C128.098 96.696 129.514 97.248 130.978 97.248C132.37 97.248 133.33 96.6 133.33 95.64C133.33 94.488 132.058 94.128 130.522 93.696C127.666 92.904 126.25 92.088 126.25 90.072C126.226 87.792 128.122 86.304 130.762 86.304C132.37 86.304 134.002 86.856 135.346 87.744L134.29 89.496C133.09 88.752 131.842 88.344 130.762 88.344C129.538 88.344 128.578 88.872 128.578 89.808C128.578 90.768 129.346 91.056 131.434 91.704C133.474 92.304 135.658 92.976 135.658 95.448C135.658 97.8 133.666 99.288 130.954 99.288ZM152.967 92.232V90.12H159.783V96.696C158.223 98.28 155.631 99.288 153.303 99.288C148.671 99.288 144.711 95.376 144.711 90.744C144.711 86.112 148.671 82.224 153.303 82.224C155.631 82.224 158.223 83.208 159.783 84.816L158.079 86.448C156.951 85.224 155.007 84.456 153.303 84.456C149.991 84.456 147.207 87.336 147.207 90.744C147.207 94.176 149.991 97.056 153.303 97.056C154.695 97.056 156.255 96.552 157.383 95.688V92.232H152.967ZM171.69 86.592H174.066V99H171.69V97.2C170.946 98.424 169.434 99.288 167.754 99.288C165.018 99.288 163.098 97.296 163.098 94.488V86.592H165.426V94.08C165.426 95.928 166.602 97.224 168.282 97.224C170.01 97.224 171.498 96.096 171.69 94.632V86.592ZM182.721 86.304C186.057 86.304 187.905 88.416 187.905 91.488V99H185.577V97.296C184.665 98.592 182.961 99.288 181.449 99.288C178.809 99.288 176.865 97.752 176.865 95.328C176.865 92.856 179.097 91.2 181.833 91.2C183.057 91.2 184.377 91.464 185.577 91.872V91.488C185.577 89.928 184.857 88.272 182.385 88.272C181.161 88.272 179.961 88.752 178.881 89.304L178.017 87.552C179.793 86.664 181.353 86.304 182.721 86.304ZM181.905 97.416C183.441 97.416 185.169 96.648 185.577 95.112V93.456C184.569 93.144 183.417 92.976 182.193 92.976C180.537 92.976 179.145 93.912 179.145 95.256C179.145 96.6 180.345 97.416 181.905 97.416ZM193.837 88.968C194.629 87.336 196.309 86.304 198.445 86.304V88.368C195.877 88.368 194.053 89.784 193.837 91.944V99H191.461V86.592H193.837V88.968ZM205.971 86.304C209.307 86.304 211.155 88.416 211.155 91.488V99H208.827V97.296C207.915 98.592 206.211 99.288 204.699 99.288C202.059 99.288 200.115 97.752 200.115 95.328C200.115 92.856 202.347 91.2 205.083 91.2C206.307 91.2 207.627 91.464 208.827 91.872V91.488C208.827 89.928 208.107 88.272 205.635 88.272C204.411 88.272 203.211 88.752 202.131 89.304L201.267 87.552C203.043 86.664 204.603 86.304 205.971 86.304ZM205.155 97.416C206.691 97.416 208.419 96.648 208.827 95.112V93.456C207.819 93.144 206.667 92.976 205.443 92.976C203.787 92.976 202.395 93.912 202.395 95.256C202.395 96.6 203.595 97.416 205.155 97.416ZM220.903 86.304C223.639 86.304 225.559 88.296 225.559 91.104V99H223.231V91.512C223.231 89.664 222.055 88.368 220.375 88.368C218.647 88.368 217.159 89.496 216.967 90.96V99H214.591V86.592H216.967V88.392C217.711 87.168 219.223 86.304 220.903 86.304ZM234.766 96.768L235.63 98.4C234.958 98.952 234.046 99.288 233.158 99.288C231.238 99.288 229.894 97.896 229.894 95.904V88.608H228.022V86.592H229.894V83.184H232.222V86.592H235.15V88.608H232.222V95.736C232.222 96.6 232.798 97.224 233.494 97.224C234.022 97.224 234.502 97.032 234.766 96.768ZM243.74 97.176C245.036 97.176 246.548 96.6 247.292 95.832L248.78 97.368C247.676 98.544 245.516 99.288 243.764 99.288C240.308 99.288 237.38 96.576 237.38 92.76C237.38 89.04 240.14 86.304 243.572 86.304C247.364 86.304 249.548 89.184 249.548 93.624H239.78C240.092 95.688 241.604 97.176 243.74 97.176ZM243.668 88.416C241.748 88.416 240.188 89.712 239.804 91.728H247.244C246.98 89.808 245.804 88.416 243.668 88.416ZM257.99 97.176C259.286 97.176 260.798 96.6 261.542 95.832L263.03 97.368C261.926 98.544 259.766 99.288 258.014 99.288C254.558 99.288 251.63 96.576 251.63 92.76C251.63 89.04 254.39 86.304 257.822 86.304C261.614 86.304 263.798 89.184 263.798 93.624H254.03C254.342 95.688 255.854 97.176 257.99 97.176ZM257.918 88.416C255.998 88.416 254.438 89.712 254.054 91.728H261.494C261.23 89.808 260.054 88.416 257.918 88.416Z" fill="white"/>
</svg>
