<svg width="54" height="54" viewBox="0 0 54 54" fill="none" xmlns="http://www.w3.org/2000/svg">
<rect x="0.5" y="0.5" width="53" height="53" rx="26.5" stroke="white" stroke-opacity="0.25"/>
<path d="M26.7444 18.7556C29.3444 18.7556 29.6556 18.7667 30.6778 18.8112C31.6333 18.8556 32.1444 19.0112 32.4889 19.1445C32.9444 19.3334 33.2667 19.5334 33.6111 19.8778C33.9444 20.2112 34.1667 20.5445 34.3333 20.9889C34.4667 21.3445 34.6333 21.8556 34.6667 22.8112C34.7222 23.8334 34.7333 24.1445 34.7333 26.7445C34.7333 29.3445 34.7222 29.6556 34.6778 30.6778C34.6727 31.2963 34.5599 31.9092 34.3444 32.4889C34.1556 32.9445 33.9556 33.2667 33.6111 33.6112C33.2778 33.9445 32.9444 34.1667 32.4889 34.3445C32.1444 34.4778 31.6333 34.6334 30.6778 34.6778C29.6556 34.7223 29.3444 34.7334 26.7444 34.7334C24.1444 34.7334 23.8333 34.7334 22.8 34.6778C22.1853 34.6715 21.5762 34.5587 21 34.3445C20.5333 34.1667 20.2222 33.9556 19.8778 33.6112C19.5333 33.2778 19.3222 32.9445 19.1444 32.5001C18.9294 31.9163 18.8167 31.2999 18.8111 30.6778C18.7667 29.6556 18.7556 29.3445 18.7556 26.7445C18.7556 24.1445 18.7556 23.8334 18.8111 22.8112C18.8556 21.8556 19.0111 21.3445 19.1444 21.0001C19.3222 20.5445 19.5333 20.2223 19.8778 19.8778C20.2111 19.5445 20.5444 19.3223 20.9889 19.1556C21.3444 19.0223 21.8556 18.8556 22.8 18.8223C23.8333 18.7667 24.1333 18.7556 26.7444 18.7556ZM26.7444 17.0001C24.1 17.0001 23.7667 17.0112 22.7222 17.0556C21.6889 17.1001 20.9778 17.2778 20.3556 17.5001C19.7222 17.7556 19.1778 18.1001 18.6333 18.6334C18.1111 19.1778 17.7778 19.7223 17.5111 20.3556C17.2667 20.9778 17.1 21.6889 17.0667 22.7223C17 23.7778 17 24.1112 17 26.7445C17 29.3778 17.0111 29.7223 17.0556 30.7556C17.1 31.8001 17.2778 32.5001 17.5 33.1223C17.7556 33.7667 18.1 34.3112 18.6333 34.8556C19.1778 35.3889 19.7222 35.7223 20.3556 35.9778C20.9778 36.2223 21.6889 36.3889 22.7222 36.4223C23.7667 36.4778 24.1 36.4889 26.7444 36.4889C29.4 36.4889 29.7222 36.4778 30.7667 36.4334C31.8 36.3889 32.5111 36.2112 33.1333 35.9778C33.7825 35.7341 34.3704 35.351 34.8556 34.8556C35.4 34.3112 35.7333 33.7667 35.9778 33.1223C36.2222 32.5112 36.3889 31.8001 36.4333 30.7556C36.4778 29.7223 36.4889 29.3889 36.4889 26.7445C36.4889 24.0889 36.4889 23.7667 36.4333 22.7223C36.4193 21.914 36.269 21.1139 35.9889 20.3556C35.7419 19.7054 35.355 19.1175 34.8556 18.6334C34.3686 18.1402 33.7812 17.7574 33.1333 17.5112C32.3759 17.2264 31.5757 17.0723 30.7667 17.0556C29.4266 17.0019 28.0854 16.9834 26.7444 17.0001Z" fill="#F4F2EF"/>
<path d="M26.7778 21.4449C25.4517 21.4449 24.1799 21.9717 23.2422 22.9093C22.3046 23.847 21.7778 25.1188 21.7778 26.4449C21.7778 27.771 22.3046 29.0427 23.2422 29.9804C24.1799 30.9181 25.4517 31.4449 26.7778 31.4449C28.1039 31.4449 29.3756 30.9181 30.3133 29.9804C31.251 29.0427 31.7778 27.771 31.7778 26.4449C31.7778 25.1188 31.251 23.847 30.3133 22.9093C29.3756 21.9717 28.1039 21.4449 26.7778 21.4449ZM26.7778 29.7004C26.351 29.7004 25.9284 29.6164 25.534 29.453C25.1397 29.2897 24.7815 29.0503 24.4797 28.7485C24.1779 28.4467 23.9385 28.0885 23.7752 27.6942C23.6118 27.2998 23.5278 26.8772 23.5278 26.4504C23.5278 26.0236 23.6118 25.601 23.7752 25.2067C23.9385 24.8124 24.1779 24.4541 24.4797 24.1523C24.7815 23.8505 25.1397 23.6112 25.534 23.4478C25.9284 23.2845 26.351 23.2004 26.7778 23.2004C27.6397 23.2004 28.4664 23.5428 29.0759 24.1523C29.6854 24.7618 30.0278 25.5885 30.0278 26.4504C30.0278 27.3124 29.6854 28.139 29.0759 28.7485C28.4664 29.358 27.6397 29.7004 26.7778 29.7004ZM31.9222 22.556C32.2316 22.556 32.5284 22.4331 32.7472 22.2143C32.966 21.9955 33.0889 21.6987 33.0889 21.3893C33.0889 21.0799 32.966 20.7832 32.7472 20.5644C32.5284 20.3456 32.2316 20.2227 31.9222 20.2227C31.6128 20.2227 31.3161 20.3456 31.0973 20.5644C30.8785 20.7832 30.7555 21.0799 30.7555 21.3893C30.7555 21.6987 30.8785 21.9955 31.0973 22.2143C31.3161 22.4331 31.6128 22.556 31.9222 22.556Z" fill="#F4F2EF"/>
</svg>
