<svg width="58" height="58" viewBox="0 0 58 58" fill="none" xmlns="http://www.w3.org/2000/svg">
<rect x="0.5" y="0.5" width="57" height="57" rx="28.5" stroke="white" stroke-opacity="0.25"/>
<path d="M22.3341 21.5H35.6675C36.1277 21.5 36.5008 21.8731 36.5008 22.3333V35.6667C36.5008 36.1269 36.1277 36.5 35.6675 36.5H22.3341C21.8739 36.5 21.5008 36.1269 21.5008 35.6667V22.3333C21.5008 21.8731 21.8739 21.5 22.3341 21.5ZM23.1675 23.1667V34.8333H34.8341V23.1667H23.1675ZM25.2508 26.5C24.5604 26.5 24.0008 25.9404 24.0008 25.25C24.0008 24.5596 24.5604 24 25.2508 24C25.9411 24 26.5008 24.5596 26.5008 25.25C26.5008 25.9404 25.9411 26.5 25.2508 26.5ZM24.4175 27.3333H26.0841V33.5833H24.4175V27.3333ZM29.0008 27.6912C29.4878 27.2211 30.0554 26.9167 30.6675 26.9167C32.3933 26.9167 33.5841 28.3157 33.5841 30.0417V33.5833H31.9175V30.0417C31.9175 29.2362 31.2646 28.5833 30.4591 28.5833C29.6537 28.5833 29.0008 29.2362 29.0008 30.0417V33.5833H27.3341V27.3333H29.0008V27.6912Z" fill="#F4F2EF"/>
</svg>
