<svg width="26" height="15" viewBox="0 0 26 15" fill="none" xmlns="http://www.w3.org/2000/svg">
<path fill-rule="evenodd" clip-rule="evenodd" d="M13.3414 13.2086C12.016 14.3257 10.2968 15 8.41821 15C4.22619 15 0.827881 11.6421 0.827881 7.5C0.827881 3.35786 4.22619 0 8.41821 0C10.2968 0 12.016 0.674346 13.3414 1.79142C14.6668 0.674346 16.386 0 18.2646 0C22.4566 0 25.8549 3.35786 25.8549 7.5C25.8549 11.6421 22.4566 15 18.2646 15C16.386 15 14.6668 14.3257 13.3414 13.2086Z" fill="#ED0006"/>
<path fill-rule="evenodd" clip-rule="evenodd" d="M13.3416 13.2086C14.9737 11.8329 16.0087 9.7859 16.0087 7.5C16.0087 5.2141 14.9737 3.16706 13.3416 1.79142C14.6669 0.674346 16.3861 0 18.2647 0C22.4568 0 25.8551 3.35786 25.8551 7.5C25.8551 11.6421 22.4568 15 18.2647 15C16.3861 15 14.6669 14.3257 13.3416 13.2086Z" fill="#F9A000"/>
<path fill-rule="evenodd" clip-rule="evenodd" d="M13.3408 13.2082C14.973 11.8325 16.008 9.78549 16.008 7.49959C16.008 5.2137 14.973 3.16666 13.3408 1.79102C11.7087 3.16666 10.6737 5.2137 10.6737 7.49959C10.6737 9.78549 11.7087 11.8325 13.3408 13.2082Z" fill="#FF5E00"/>
</svg>
