<svg width="14" height="15" viewBox="0 0 14 15" fill="none" xmlns="http://www.w3.org/2000/svg">
<path fill-rule="evenodd" clip-rule="evenodd" d="M4.3493 14.4913L4.6008 12.8402L4.04055 12.8267H1.36523L3.22448 0.642034C3.23027 0.605138 3.249 0.570887 3.27634 0.546521C3.30382 0.522155 3.33885 0.508789 3.37549 0.508789H7.88647C9.38416 0.508789 10.4176 0.830834 10.9572 1.46657C11.2101 1.7648 11.3712 2.07655 11.4492 2.41948C11.531 2.77939 11.5324 3.20934 11.4526 3.73383L11.4468 3.77198V4.10809L11.6998 4.25623C11.9128 4.37304 12.0821 4.50671 12.212 4.65972C12.4283 4.9148 12.5683 5.23893 12.6274 5.62307C12.6886 6.01821 12.6684 6.48854 12.5683 7.02097C12.4528 7.63331 12.2663 8.16671 12.0142 8.60306C11.7825 9.00517 11.4872 9.33877 11.1366 9.59718C10.8018 9.84279 10.4042 10.0292 9.95452 10.1485C9.51874 10.2658 9.02193 10.325 8.47704 10.325H8.12598C7.87502 10.325 7.6312 10.4184 7.43978 10.5859C7.24782 10.7568 7.12092 10.9905 7.08199 11.246L7.05546 11.3947L6.61105 14.305L6.59098 14.4118C6.58559 14.4457 6.57643 14.4625 6.56296 14.4739C6.55097 14.4844 6.53373 14.4913 6.51689 14.4913H4.3493Z" fill="#28356A"/>
<path fill-rule="evenodd" clip-rule="evenodd" d="M11.9394 3.81055C11.9261 3.89952 11.9106 3.99044 11.8933 4.08386C11.2985 7.24081 9.26314 8.33142 6.6638 8.33142H5.34029C5.02238 8.33142 4.75444 8.56993 4.705 8.89406L3.83546 14.5949C3.80327 14.8078 3.96195 14.9995 4.16967 14.9995H6.5171C6.79501 14.9995 7.03115 14.7908 7.07493 14.5075L7.09797 14.3843L7.53995 11.4853L7.56837 11.3263C7.61161 11.042 7.84829 10.8331 8.1262 10.8331H8.47725C10.7515 10.8331 12.532 9.87885 13.0524 7.11704C13.2696 5.96336 13.1572 5.00001 12.582 4.3225C12.4079 4.11825 12.192 3.94867 11.9394 3.81055Z" fill="#298FC2"/>
<path fill-rule="evenodd" clip-rule="evenodd" d="M11.3166 3.55467C11.2257 3.52724 11.132 3.50246 11.0358 3.48004C10.939 3.45818 10.84 3.43883 10.7381 3.42184C10.3812 3.36225 9.99016 3.33398 9.57135 3.33398H6.03566C5.9485 3.33398 5.86579 3.35431 5.79184 3.39107C5.6287 3.4721 5.5076 3.63166 5.47823 3.82701L4.72602 8.7511L4.70447 8.89465C4.75391 8.57051 5.02184 8.33201 5.33975 8.33201H6.66326C9.2626 8.33201 11.2979 7.24084 11.8928 4.08445C11.9106 3.99102 11.9255 3.9001 11.9389 3.81113C11.7884 3.72857 11.6254 3.65798 11.4499 3.59783C11.4065 3.58293 11.3618 3.56859 11.3166 3.55467Z" fill="#22284F"/>
<path fill-rule="evenodd" clip-rule="evenodd" d="M5.47866 3.82694C5.50803 3.6316 5.62913 3.47204 5.79226 3.39156C5.86676 3.35466 5.94893 3.33434 6.03609 3.33434H9.57178C9.99059 3.33434 10.3816 3.36274 10.7385 3.42233C10.8405 3.43918 10.9395 3.45867 11.0362 3.48053C11.1324 3.50281 11.2261 3.52773 11.3171 3.55502C11.3622 3.56894 11.4069 3.58342 11.4507 3.59776C11.6262 3.65791 11.7894 3.72906 11.9398 3.81107C12.1168 2.64444 11.9383 1.85012 11.3281 1.13085C10.6552 0.338892 9.44098 0 7.88712 0H3.376C3.05862 0 2.78786 0.238505 2.73883 0.563195L0.859911 12.8731C0.822866 13.1167 1.00459 13.3364 1.24221 13.3364H4.02718L5.47866 3.82694Z" fill="#28356A"/>
</svg>
