<svg width="281" height="96" viewBox="0 0 281 96" fill="none" xmlns="http://www.w3.org/2000/svg">
<g clip-path="url(#clip0_1_132)">
<path fill-rule="evenodd" clip-rule="evenodd" d="M131.595 9.39674V13.9575H143.58V9.39674H131.595ZM120.295 13.9575V9.39674H108.314V13.9575H120.295ZM122.105 9.39674V22.8283L125.267 19.6651C125.425 19.5068 125.649 19.4105 125.888 19.3971C126.127 19.3837 126.363 19.4544 126.543 19.5938C126.574 19.6176 126.602 19.6433 126.629 19.6705L129.785 22.831V9.39674H122.105ZM169.647 36.982H170.062V34.2542H168.101V35.6185C168.103 35.9797 168.266 36.3256 168.556 36.5809C168.846 36.8363 169.238 36.9804 169.647 36.982ZM160.241 44.916C160.091 44.7832 159.893 44.7004 159.682 44.6818C159.47 44.6631 159.258 44.7098 159.081 44.8139C158.904 44.918 158.773 45.073 158.711 45.2525C158.649 45.432 158.66 45.6248 158.741 45.7982C158.822 45.9716 158.969 46.1148 159.157 46.2034C159.344 46.2919 159.561 46.3204 159.769 46.2839C159.978 46.2474 160.166 46.1482 160.301 46.0032C160.435 45.8582 160.509 45.6764 160.509 45.4888C160.51 45.3824 160.486 45.2771 160.44 45.1788C160.394 45.0805 160.326 44.9912 160.241 44.916ZM159.592 43.0817C160.223 43.0816 160.835 43.2747 161.323 43.628C161.811 43.9814 162.146 44.4731 162.269 45.0195C162.392 45.5659 162.297 46.133 161.999 46.6244C161.701 47.1157 161.22 47.5007 160.637 47.7139C160.053 47.9271 159.404 47.9552 158.8 47.7934C158.196 47.6317 157.674 47.2901 157.323 46.8268C156.973 46.3636 156.815 45.8074 156.877 45.253C156.939 44.6986 157.217 44.1803 157.663 43.7865C157.916 43.5628 158.217 43.3853 158.548 43.2644C158.879 43.1434 159.234 43.0814 159.592 43.0817ZM122.786 44.916C122.636 44.7832 122.438 44.7004 122.226 44.6818C122.015 44.6631 121.802 44.7098 121.625 44.8139C121.448 44.918 121.318 45.073 121.256 45.2525C121.194 45.432 121.205 45.6248 121.286 45.7982C121.367 45.9716 121.514 46.1148 121.701 46.2034C121.889 46.2919 122.105 46.3204 122.314 46.2839C122.522 46.2474 122.71 46.1482 122.845 46.0032C122.98 45.8582 123.054 45.6764 123.054 45.4888C123.054 45.3824 123.031 45.277 122.985 45.1788C122.939 45.0805 122.871 44.9912 122.786 44.916ZM122.137 43.0817C122.768 43.0817 123.379 43.2748 123.867 43.628C124.354 43.9812 124.688 44.4727 124.811 45.0187C124.934 45.5647 124.839 46.1315 124.542 46.6225C124.244 47.1135 123.763 47.4983 123.18 47.7113C122.597 47.9244 121.949 47.9525 121.345 47.7909C120.741 47.6292 120.219 47.2879 119.869 46.825C119.518 46.3621 119.361 45.8062 119.422 45.2522C119.484 44.6981 119.762 44.1801 120.208 43.7865C120.461 43.5628 120.762 43.3853 121.093 43.2644C121.424 43.1434 121.778 43.0814 122.137 43.0817ZM109.546 15.5564H120.295V24.9413C120.296 25.1058 120.355 25.266 120.463 25.4001C120.571 25.5342 120.723 25.6357 120.898 25.6907C121.074 25.7457 121.265 25.7516 121.444 25.7076C121.624 25.6636 121.784 25.5718 121.902 25.4448L125.945 21.3967L130.012 25.4661C130.134 25.5866 130.294 25.6718 130.472 25.7102C130.65 25.7487 130.837 25.7388 131.008 25.6817C131.18 25.6246 131.327 25.523 131.432 25.3904C131.537 25.2578 131.593 25.1003 131.595 24.9387V15.5564H142.343V34.693H109.546V15.5564ZM115.369 43.9025H108.651V47.2497L110.705 47.2864L111.871 45.8128C111.954 45.7039 112.065 45.6145 112.196 45.5528C112.327 45.491 112.473 45.4587 112.622 45.4588H115.136C115.139 44.9332 115.217 44.4107 115.369 43.9025ZM126.8 43.4738C127.187 44.1721 127.367 44.946 127.322 45.7225C127.276 46.499 127.008 47.2526 126.542 47.9123C126.075 48.572 125.426 49.116 124.655 49.4932C123.885 49.8704 123.018 50.0684 122.137 50.0684C121.256 50.0684 120.389 49.8704 119.618 49.4932C118.848 49.116 118.199 48.572 117.732 47.9123C117.266 47.2526 116.997 46.499 116.952 45.7225C116.907 44.946 117.087 44.1721 117.474 43.4738L117.492 43.4418C117.923 42.6806 118.586 42.0405 119.407 41.5932C120.227 41.1458 121.173 40.9088 122.137 40.9088C123.101 40.9088 124.047 41.1458 124.867 41.5932C125.687 42.0405 126.35 42.6806 126.782 43.4418C126.787 43.4524 126.793 43.4631 126.8 43.4738ZM152.823 43.9025H128.904C129.057 44.4098 129.135 44.932 129.138 45.4568H152.591C152.594 44.9321 152.672 44.4098 152.823 43.9025ZM165.594 42.3056C164.972 41.3924 164.092 40.6369 163.04 40.1124C161.989 39.5879 160.801 39.3122 159.593 39.3122C158.386 39.3122 157.198 39.5879 156.147 40.1124C155.095 40.6369 154.215 41.3924 153.593 42.3056H128.137C127.515 41.3924 126.635 40.6369 125.583 40.1124C124.532 39.5879 123.344 39.3122 122.137 39.3122C120.929 39.3122 119.741 39.5879 118.69 40.1124C117.638 40.6369 116.759 41.3924 116.136 42.3056H108.651V36.2892H147.35H147.373H147.396H147.419H147.441H147.463L147.486 36.2859L147.508 36.2819L147.529 36.2772L147.551 36.2719L147.572 36.2666L147.593 36.2606L147.614 36.2539L147.635 36.2472L147.655 36.2399L147.676 36.2319L147.695 36.2239L147.715 36.2152L147.735 36.2059L147.753 36.1965L147.772 36.1865L147.791 36.1765L147.809 36.1659L147.827 36.1552L147.844 36.1439L147.861 36.1319L147.878 36.1199L147.895 36.1079L147.911 36.0952L147.926 36.0819L147.942 36.0685L147.957 36.0552L147.972 36.0412L147.986 36.0272L148 36.0125L148.013 35.9978L148.027 35.9825L148.04 35.9665L148.052 35.9512L148.062 35.9212L148.075 35.9045L148.085 35.8878L148.096 35.8712L148.106 35.8538L148.116 35.8365L148.125 35.8192L148.138 35.8011L148.146 35.7831L148.154 35.7651L148.161 35.7465L148.168 35.7278L148.174 35.7091L148.18 35.6898L148.186 35.6711L148.191 35.6518L148.195 35.6318L148.199 35.6125V35.5924V35.5724V35.5518V35.5318V35.5111V18.1749H150.939C151.008 18.1748 151.077 18.1678 151.144 18.1542C151.212 18.1679 151.281 18.1748 151.35 18.1749H162.473C162.9 18.1646 163.32 18.2718 163.674 18.4816C163.769 18.5313 163.849 18.5995 163.909 18.681C163.969 18.7626 164.006 18.8552 164.019 18.9517V19.7291H151.36C151.119 19.7291 150.888 19.8134 150.718 19.9635C150.548 20.1135 150.453 20.3171 150.453 20.5293C150.453 20.5513 150.453 20.5733 150.453 20.5959L150.405 29.4601C150.404 29.5647 150.427 29.6684 150.472 29.7653C150.516 29.8621 150.582 29.9503 150.666 30.0246C150.749 30.0989 150.848 30.158 150.958 30.1984C151.067 30.2389 151.184 30.2599 151.303 30.2602V30.2636H167.626C168.27 30.2657 168.887 30.4924 169.342 30.8943C169.798 31.2963 170.055 31.8408 170.057 32.4092V32.6586H167.196C167.077 32.6586 166.959 32.6793 166.849 32.7195C166.739 32.7597 166.639 32.8187 166.555 32.893C166.471 32.9673 166.404 33.0555 166.359 33.1526C166.313 33.2496 166.29 33.3537 166.29 33.4588V35.6218C166.292 36.4065 166.646 37.1586 167.275 37.7135C167.904 38.2684 168.756 38.581 169.646 38.5829H170.06V42.3089L165.594 42.3056ZM164.256 43.4738C164.643 44.172 164.822 44.9457 164.777 45.722C164.732 46.4983 164.463 47.2516 163.997 47.911C163.53 48.5704 162.881 49.1143 162.111 49.4913C161.34 49.8683 160.474 50.0662 159.593 50.0662C158.712 50.0662 157.846 49.8683 157.075 49.4913C156.305 49.1143 155.656 48.5704 155.19 47.911C154.723 47.2516 154.455 46.4983 154.409 45.722C154.364 44.9457 154.543 44.172 154.93 43.4738C154.937 43.4631 154.943 43.4524 154.948 43.4418C155.38 42.6807 156.043 42.0406 156.863 41.5933C157.684 41.1459 158.629 40.909 159.593 40.909C160.558 40.909 161.503 41.1459 162.324 41.5933C163.144 42.0406 163.807 42.6807 164.239 43.4418C164.244 43.4524 164.25 43.4631 164.256 43.4738ZM170.968 43.9025H166.358C166.51 44.4098 166.588 44.9321 166.591 45.4568H171.819C172.048 45.4508 172.265 45.3664 172.425 45.2213C172.585 45.0762 172.674 44.8819 172.674 44.6796C172.674 44.4774 172.585 44.2831 172.425 44.138C172.265 43.9929 172.048 43.9084 171.819 43.9025H170.968ZM166.902 28.6666H167.63C168.754 28.6691 169.831 29.0642 170.626 29.7655C171.421 30.4669 171.869 31.4174 171.872 32.4092V42.3056C172.579 42.3201 173.251 42.5797 173.743 43.0282C174.235 43.4767 174.507 44.078 174.5 44.702C174.493 45.326 174.208 45.9226 173.707 46.3627C173.205 46.8028 172.528 47.0511 171.82 47.0537H166.366C165.973 48.3749 165.096 49.5442 163.87 50.3786C162.644 51.213 161.14 51.6656 159.592 51.6656C158.044 51.6656 156.54 51.213 155.314 50.3786C154.088 49.5442 153.211 48.3749 152.818 47.0537H128.911C128.519 48.3754 127.641 49.5451 126.415 50.3799C125.189 51.2146 123.685 51.6674 122.136 51.6674C120.588 51.6674 119.083 51.2146 117.857 50.3799C116.631 49.5451 115.754 48.3754 115.361 47.0537H113.094L111.909 48.5499C111.825 48.6569 111.711 48.7439 111.579 48.8031C111.448 48.8623 111.301 48.8919 111.153 48.8893L107.732 48.8287C107.496 48.8246 107.271 48.7391 107.105 48.5903C106.94 48.4416 106.848 48.2415 106.848 48.0332V36.2539C106.848 36.0488 106.894 35.8458 106.983 35.6564C107.072 35.467 107.203 35.2951 107.368 35.1504C107.39 35.1304 107.414 35.1117 107.438 35.0937C107.532 35.0192 107.634 34.9537 107.744 34.8983V15.5564H107.407C107.167 15.5564 106.936 15.4723 106.766 15.3226C106.596 15.1728 106.5 14.9696 106.5 14.7576V8.59994C106.5 8.38773 106.596 8.18421 106.766 8.03416C106.936 7.8841 107.166 7.7998 107.407 7.7998H144.485C144.726 7.7998 144.956 7.8841 145.126 8.03416C145.296 8.18421 145.392 8.38773 145.392 8.59994V14.7576C145.392 14.9698 145.296 15.1734 145.126 15.3234C144.956 15.4735 144.726 15.5578 144.485 15.5578H144.154V34.6943H146.4V17.3747C146.4 17.1625 146.496 16.959 146.666 16.809C146.836 16.6589 147.066 16.5746 147.307 16.5746H150.952C151.021 16.5744 151.09 16.5813 151.158 16.5953C151.225 16.581 151.294 16.5738 151.363 16.5739H162.487C163.295 16.5668 164.086 16.7835 164.748 17.1934C165.076 17.3872 165.347 17.6477 165.538 17.9531C165.728 18.2585 165.833 18.5998 165.843 18.9483V20.5246C165.843 20.6933 165.782 20.8576 165.669 20.994C165.557 21.1304 165.398 21.2319 165.216 21.2841L166.902 28.6666ZM152.257 21.3247L152.213 28.6666H165.06L163.382 21.3247H152.257Z" fill="white"/>
</g>
<path d="M37.8837 91.264C35.1237 91.264 32.8437 90.304 31.0917 88.624L32.5557 86.824C34.0197 88.216 35.7477 89.128 37.9797 89.128C40.2597 89.128 41.4357 87.928 41.4357 86.608C41.4357 85.048 40.0677 84.448 37.3077 83.824C33.9477 83.032 31.7157 82.024 31.7157 79.048C31.7157 76.288 34.1157 74.2 37.4277 74.2C39.9717 74.2 41.8677 75.136 43.4517 76.528L42.0597 78.352C40.6677 77.08 39.0117 76.336 37.3317 76.336C35.4837 76.336 34.1877 77.512 34.1877 78.832C34.1877 80.368 35.6037 80.896 38.3157 81.544C41.6037 82.312 43.8837 83.416 43.8837 86.368C43.8837 89.152 41.7717 91.264 37.8837 91.264ZM53.1025 78.304C55.8385 78.304 57.7585 80.296 57.7585 83.104V91H55.4305V83.512C55.4305 81.664 54.2545 80.368 52.5745 80.368C50.7025 80.368 49.1425 81.688 49.1425 83.296V91H46.7905V74.224H49.1425V80.44C49.8865 79.192 51.3985 78.304 53.1025 78.304ZM62.3337 76.528C61.5177 76.528 60.8937 75.856 60.8937 75.088C60.8937 74.344 61.5177 73.672 62.3337 73.672C63.1017 73.672 63.7497 74.344 63.7497 75.088C63.7497 75.856 63.1017 76.528 62.3337 76.528ZM61.1337 91V78.592H63.5097V91H61.1337ZM73.8348 78.304C77.0988 78.304 79.5468 80.992 79.5468 84.784C79.5468 88.6 77.0988 91.288 73.8348 91.288C71.9148 91.288 70.3788 90.376 69.4188 88.84V95.128H67.0668V78.592H69.4188V80.728C70.3788 79.216 71.9148 78.304 73.8348 78.304ZM73.2588 89.224C75.5388 89.224 77.1468 87.376 77.1468 84.784C77.1468 82.192 75.5388 80.368 73.2588 80.368C71.0268 80.368 69.4188 82.192 69.4188 84.784C69.4188 87.376 71.0268 89.224 73.2588 89.224ZM89.3035 78.304C92.5675 78.304 95.0155 80.992 95.0155 84.784C95.0155 88.6 92.5675 91.288 89.3035 91.288C87.3835 91.288 85.8475 90.376 84.8875 88.84V95.128H82.5355V78.592H84.8875V80.728C85.8475 79.216 87.3835 78.304 89.3035 78.304ZM88.7275 89.224C91.0075 89.224 92.6155 87.376 92.6155 84.784C92.6155 82.192 91.0075 80.368 88.7275 80.368C86.4955 80.368 84.8875 82.192 84.8875 84.784C84.8875 87.376 86.4955 89.224 88.7275 89.224ZM99.0603 76.528C98.2443 76.528 97.6203 75.856 97.6203 75.088C97.6203 74.344 98.2443 73.672 99.0603 73.672C99.8283 73.672 100.476 74.344 100.476 75.088C100.476 75.856 99.8283 76.528 99.0603 76.528ZM97.8603 91V78.592H100.236V91H97.8603ZM109.985 78.304C112.721 78.304 114.641 80.296 114.641 83.104V91H112.313V83.512C112.313 81.664 111.137 80.368 109.457 80.368C107.729 80.368 106.241 81.496 106.049 82.96V91H103.673V78.592H106.049V80.392C106.793 79.168 108.305 78.304 109.985 78.304ZM127.473 78.592H129.849V89.68C129.849 92.872 127.233 95.128 123.561 95.128C121.473 95.128 119.553 94.432 118.377 93.472L119.312 91.696C120.225 92.56 121.713 93.064 123.201 93.064C125.865 93.064 127.473 91.792 127.473 89.632V87.832C126.489 89.248 124.953 90.088 123.081 90.088C119.817 90.088 117.441 87.64 117.441 84.184C117.441 80.728 119.817 78.304 123.081 78.304C124.953 78.304 126.537 79.192 127.473 80.584V78.592ZM123.681 88.024C125.889 88.024 127.473 86.44 127.473 84.184C127.473 81.952 125.889 80.368 123.681 80.368C121.473 80.368 119.913 81.952 119.913 84.184C119.913 86.44 121.473 88.024 123.681 88.024ZM153.795 90.28L151.707 91.24C150.963 90.496 150.291 89.8 149.691 89.176C148.323 90.496 146.715 91.288 144.723 91.288C141.699 91.288 139.419 89.512 139.419 86.584C139.419 84.448 140.571 82.96 143.115 81.832C142.179 80.536 141.795 79.504 141.795 78.28C141.795 76.072 143.643 74.32 146.163 74.32C148.515 74.32 150.291 76.072 150.291 78.256C150.291 80.32 148.803 81.328 146.355 82.384C147.339 83.512 148.371 84.664 149.715 86.056C150.411 85.048 151.011 83.872 151.491 82.6L153.387 83.464C152.691 84.976 151.947 86.344 151.107 87.52L153.795 90.28ZM146.163 76.216C144.939 76.216 144.003 77.008 144.003 78.28C144.003 79.12 144.387 79.96 145.203 81.016C147.243 80.2 148.083 79.552 148.083 78.28C148.083 77.128 147.291 76.216 146.163 76.216ZM144.915 89.32C146.139 89.32 147.291 88.72 148.323 87.76C146.499 85.864 145.275 84.52 144.243 83.272C142.659 84.088 141.771 85.12 141.771 86.488C141.771 88.264 143.211 89.32 144.915 89.32ZM176.403 79.888C176.403 82.432 174.675 84.376 172.179 85.024L176.379 91H173.595L169.563 85.264H165.771V91H163.347V74.512H170.283C173.763 74.512 176.403 76.744 176.403 79.888ZM165.771 76.768V83.008H169.947C172.323 83.008 173.931 81.832 173.931 79.888C173.931 77.944 172.323 76.768 169.947 76.768H165.771ZM184.783 89.176C186.079 89.176 187.591 88.6 188.335 87.832L189.823 89.368C188.719 90.544 186.559 91.288 184.807 91.288C181.351 91.288 178.423 88.576 178.423 84.76C178.423 81.04 181.183 78.304 184.615 78.304C188.407 78.304 190.591 81.184 190.591 85.624H180.823C181.135 87.688 182.647 89.176 184.783 89.176ZM184.711 80.416C182.791 80.416 181.231 81.712 180.847 83.728H188.287C188.023 81.808 186.847 80.416 184.711 80.416ZM199.153 88.768L200.017 90.4C199.345 90.952 198.433 91.288 197.545 91.288C195.625 91.288 194.281 89.896 194.281 87.904V80.608H192.409V78.592H194.281V75.184H196.609V78.592H199.537V80.608H196.609V87.736C196.609 88.6 197.185 89.224 197.881 89.224C198.409 89.224 198.889 89.032 199.153 88.768ZM210.983 78.592H213.359V91H210.983V89.2C210.239 90.424 208.727 91.288 207.047 91.288C204.311 91.288 202.391 89.296 202.391 86.488V78.592H204.719V86.08C204.719 87.928 205.895 89.224 207.575 89.224C209.303 89.224 210.791 88.096 210.983 86.632V78.592ZM219.302 80.968C220.094 79.336 221.774 78.304 223.91 78.304V80.368C221.342 80.368 219.518 81.784 219.302 83.944V91H216.926V78.592H219.302V80.968ZM232.54 78.304C235.276 78.304 237.196 80.296 237.196 83.104V91H234.868V83.512C234.868 81.664 233.692 80.368 232.012 80.368C230.284 80.368 228.796 81.496 228.604 82.96V91H226.228V78.592H228.604V80.392C229.348 79.168 230.86 78.304 232.54 78.304ZM245.083 91.288C243.259 91.288 241.267 90.64 239.779 89.44L240.907 87.736C242.227 88.696 243.643 89.248 245.107 89.248C246.499 89.248 247.459 88.6 247.459 87.64C247.459 86.488 246.187 86.128 244.651 85.696C241.795 84.904 240.379 84.088 240.379 82.072C240.355 79.792 242.251 78.304 244.891 78.304C246.499 78.304 248.131 78.856 249.475 79.744L248.419 81.496C247.219 80.752 245.971 80.344 244.891 80.344C243.667 80.344 242.707 80.872 242.707 81.808C242.707 82.768 243.475 83.056 245.563 83.704C247.603 84.304 249.787 84.976 249.787 87.448C249.787 89.8 247.795 91.288 245.083 91.288Z" fill="white"/>
<defs>
<clipPath id="clip0_1_132">
<rect width="68" height="60" fill="white" transform="translate(106.5)"/>
</clipPath>
</defs>
</svg>
