<svg width="31" height="13" viewBox="0 0 31 13" fill="none" xmlns="http://www.w3.org/2000/svg">
<path d="M17.7503 4.04253C17.7503 5.82476 16.5008 7.09702 14.7547 7.09702H13.1096C13.0915 7.09702 13.0735 7.10061 13.0567 7.10758C13.0399 7.11455 13.0247 7.12476 13.0119 7.13764C12.9991 7.15051 12.9889 7.16579 12.9821 7.18259C12.9752 7.1994 12.9717 7.21739 12.9718 7.23556V9.57796C12.9718 9.61459 12.9573 9.64972 12.9314 9.67568C12.9056 9.70164 12.8705 9.71632 12.8339 9.7165H11.6828C11.6554 9.71636 11.6287 9.70817 11.6059 9.69293C11.5832 9.6777 11.5655 9.65609 11.5549 9.63083C11.548 9.6143 11.5444 9.59656 11.5442 9.57863V1.1259C11.5441 1.10774 11.5476 1.08974 11.5545 1.07294C11.5614 1.05613 11.5716 1.04085 11.5844 1.02798C11.5972 1.01511 11.6124 1.00489 11.6292 0.997922C11.646 0.990951 11.6639 0.987364 11.6821 0.987364H14.762C16.5008 0.985356 17.7503 2.25762 17.7503 4.04253ZM16.3147 4.04253C16.3147 3.01789 15.616 2.26899 14.6683 2.26899H13.1096C13.0915 2.26899 13.0735 2.27258 13.0567 2.27955C13.0399 2.28652 13.0247 2.29674 13.0119 2.30961C12.9991 2.32248 12.9889 2.33776 12.9821 2.35456C12.9752 2.37137 12.9717 2.38937 12.9718 2.40753V5.66949C12.9718 5.70606 12.9863 5.74112 13.0121 5.76698C13.038 5.79283 13.0731 5.80736 13.1096 5.80736H14.6683C15.616 5.81405 16.3147 5.06448 16.3147 4.04253ZM18.0916 8.09488C18.0796 7.82154 18.1362 7.54955 18.2561 7.30364C18.376 7.05772 18.5555 6.84567 18.7782 6.68676C19.2273 6.34879 19.9294 6.17411 20.96 6.13797L22.0576 6.09916V5.77524C22.0576 5.12606 21.6226 4.85166 20.9239 4.85166C20.2252 4.85166 19.7821 5.09928 19.6804 5.50419C19.6721 5.53266 19.6546 5.55757 19.6306 5.57502C19.6066 5.59246 19.5775 5.60145 19.5479 5.60056H18.4637C18.4437 5.60111 18.4239 5.59724 18.4056 5.58925C18.3873 5.58125 18.371 5.56932 18.3578 5.55431C18.3446 5.53929 18.335 5.52155 18.3294 5.50237C18.3239 5.48318 18.3227 5.463 18.3258 5.44328C18.4864 4.48357 19.2849 3.75408 20.9734 3.75408C22.7697 3.75408 23.4182 4.59065 23.4182 6.1875V9.57796C23.4178 9.61494 23.4029 9.65028 23.3765 9.67624C23.3502 9.7022 23.3146 9.71667 23.2777 9.7165H22.1848C22.1482 9.7164 22.1131 9.70198 22.087 9.67634C22.0743 9.66349 22.0641 9.64825 22.0572 9.63148C22.0503 9.61472 22.0468 9.59676 22.0469 9.57863V9.32498C22.0473 9.30402 22.0413 9.28343 22.0298 9.26592C22.0182 9.24842 22.0017 9.23482 21.9823 9.22692C21.9628 9.21903 21.9415 9.2172 21.921 9.22168C21.9005 9.22616 21.8819 9.23674 21.8675 9.25203C21.5396 9.60875 21.0102 9.86641 20.1623 9.86641C18.9148 9.86641 18.0916 9.21723 18.0916 8.09488ZM22.0576 7.36004V7.09702L20.6361 7.17198C19.8872 7.21012 19.4515 7.52133 19.4515 8.04536C19.4515 8.51919 19.8511 8.78154 20.5491 8.78154C21.4974 8.78154 22.0576 8.26956 22.0576 7.36004ZM24.5158 12.2784V11.2959C24.516 11.2753 24.5207 11.255 24.5297 11.2365C24.5386 11.2179 24.5515 11.2015 24.5675 11.1885C24.5834 11.1755 24.6021 11.1661 24.622 11.1611C24.642 11.1561 24.6629 11.1555 24.6831 11.1594C24.8504 11.1909 25.0211 11.2069 25.1917 11.2076C25.4851 11.2219 25.7748 11.1373 26.0145 10.9674C26.2541 10.7976 26.4298 10.5522 26.5135 10.2706L26.5845 10.0444C26.5948 10.014 26.5948 9.98112 26.5845 9.95074L24.307 4.10142C24.2987 4.08022 24.2958 4.05733 24.2983 4.03473C24.3009 4.01213 24.3089 3.99048 24.3217 3.97166C24.3344 3.95283 24.3516 3.93739 24.3717 3.92665C24.3917 3.91591 24.4141 3.9102 24.4368 3.91001H25.5411C25.5693 3.9103 25.5968 3.91907 25.6199 3.93519C25.6431 3.9513 25.6609 3.97401 25.6709 4.00036L27.2176 8.12567C27.2273 8.15308 27.2452 8.1768 27.2689 8.19359C27.2927 8.21037 27.321 8.21939 27.3501 8.21939C27.3792 8.21939 27.4075 8.21037 27.4312 8.19359C27.455 8.1768 27.4729 8.15308 27.4826 8.12567L28.8258 4.01174C28.8351 3.98362 28.8531 3.95916 28.8771 3.94185C28.9011 3.92455 28.93 3.91528 28.9597 3.91537H30.1021C30.125 3.91551 30.1475 3.92118 30.1677 3.9319C30.1879 3.94263 30.2052 3.95808 30.2182 3.97695C30.2311 3.99582 30.2393 4.01755 30.2421 4.04027C30.2448 4.06299 30.242 4.08604 30.2339 4.10744L27.7978 10.6033C27.237 12.1131 26.2753 12.4993 25.2165 12.4993C25.0157 12.5046 24.8149 12.4805 24.6209 12.4277C24.5886 12.4191 24.5604 12.3995 24.5411 12.3722C24.5219 12.3449 24.5129 12.3117 24.5158 12.2784ZM4.14692 0.500144C2.69602 0.489807 1.29633 1.03589 0.235777 2.02605C0.190423 2.06759 0.162149 2.12452 0.156458 2.18575C0.150768 2.24699 0.168068 2.30815 0.204992 2.35733L0.861533 3.25414C0.882817 3.284 0.910386 3.30883 0.942299 3.32689C0.974212 3.34495 1.00969 3.35579 1.04625 3.35867C1.08281 3.36154 1.11955 3.35636 1.15389 3.34351C1.18823 3.33065 1.21933 3.31043 1.24502 3.28426C1.62637 2.90301 2.07988 2.60159 2.57906 2.39762C3.07823 2.19365 3.61306 2.09122 4.15227 2.09632C6.40366 2.09632 7.57955 3.79089 7.57955 5.46403C7.57955 7.28307 6.34409 8.56269 4.56855 8.58813C3.19657 8.58813 2.16257 7.67861 2.16257 6.47729C2.164 6.1738 2.23276 5.8744 2.36388 5.6007C2.495 5.32699 2.68523 5.08579 2.92084 4.89449C2.97065 4.85289 3.00213 4.79339 3.00852 4.7288C3.0149 4.66422 2.99567 4.59971 2.95497 4.54915L2.26497 3.67778C2.2441 3.65143 2.21817 3.62953 2.18869 3.61336C2.15922 3.5972 2.12681 3.5871 2.09337 3.58367C2.05994 3.58024 2.02615 3.58354 1.99401 3.59338C1.96187 3.60323 1.93203 3.61941 1.90624 3.64097C1.48248 3.98239 1.14051 4.41433 0.905427 4.90512C0.670339 5.39591 0.548092 5.9331 0.547652 6.47729C0.547652 8.54529 2.30512 10.1676 4.55651 10.181H4.58662C7.25964 10.1462 9.19246 8.16649 9.19246 5.46068C9.19246 3.05805 7.42294 0.500144 4.14759 0.500144H4.14692Z" fill="white"/>
</svg>
