<svg width="58" height="58" viewBox="0 0 58 58" fill="none" xmlns="http://www.w3.org/2000/svg">
<rect x="0.5" y="0.5" width="57" height="57" rx="28.5" stroke="white" stroke-opacity="0.25"/>
<path d="M32.3333 25.8715V31.917C32.3333 34.9086 29.9082 37.3337 26.9167 37.3337C23.9251 37.3337 21.5 34.9086 21.5 31.917C21.5 28.9254 23.9251 26.5003 26.9167 26.5003C27.3469 26.5003 27.7654 26.5505 28.1667 26.6453V29.281C27.7878 29.101 27.364 29.0003 26.9167 29.0003C25.3058 29.0003 24 30.3062 24 31.917C24 33.5278 25.3058 34.8337 26.9167 34.8337C28.5275 34.8337 29.8333 33.5278 29.8333 31.917V20.667H32.3333C32.3333 22.9682 34.1988 24.8337 36.5 24.8337V27.3337C34.9234 27.3337 33.4747 26.7864 32.3333 25.8715Z" fill="#F4F2EF"/>
</svg>
