<svg width="22" height="15" viewBox="0 0 22 15" fill="none" xmlns="http://www.w3.org/2000/svg">
<path d="M4.50073 0.500977H9.92706C10.6845 0.500977 11.1556 1.13654 10.9789 1.91887L8.4526 13.0845C8.27431 13.8641 7.51591 14.5002 6.75792 14.5002H1.33212C0.575706 14.5002 0.103529 13.8641 0.280232 13.0845L2.80764 1.91887C2.98434 1.13654 3.74233 0.500977 4.50073 0.500977Z" fill="#E21836"/>
<path d="M9.47512 0.5H15.7153C16.4726 0.5 16.1311 1.13556 15.9529 1.91789L13.427 13.0835C13.2498 13.8631 13.305 14.4992 12.5461 14.4992H6.30598C5.54705 14.4992 5.07739 13.8631 5.25568 13.0835L7.7815 1.91789C7.96084 1.13556 8.71725 0.5 9.47512 0.5Z" fill="#00447C"/>
<path d="M15.4675 0.5H20.8939C21.6524 0.5 22.1235 1.13556 21.9454 1.91789L19.4194 13.0835C19.2411 13.8631 18.4822 14.4992 17.7238 14.4992H12.3C11.5411 14.4992 11.0703 13.8631 11.2481 13.0835L13.7744 1.91789C13.9511 1.13556 14.7086 0.5 15.4675 0.5Z" fill="#007B84"/>
<path d="M5.91728 4.07831C5.35926 4.08416 5.19446 4.07831 5.14182 4.06551C5.12159 4.16449 4.74504 5.95258 4.74398 5.95408C4.6629 6.31584 4.60391 6.57371 4.40353 6.74023C4.28979 6.83703 4.157 6.88373 4.00304 6.88373C3.75558 6.88373 3.61141 6.75725 3.58721 6.51734L3.58258 6.43497C3.58258 6.43497 3.65797 5.95041 3.65797 5.94768C3.65797 5.94768 4.05317 4.31821 4.12393 4.10282C4.12763 4.09056 4.12869 4.08416 4.12962 4.07831C3.36038 4.08525 3.22402 4.07831 3.21463 4.06551C3.20947 4.08307 3.19042 4.1841 3.19042 4.1841L2.78689 6.02066L2.75224 6.17642L2.68518 6.6859C2.68518 6.83703 2.71401 6.96038 2.77142 7.06468C2.95526 7.39539 3.47968 7.44495 3.77635 7.44495C4.15858 7.44495 4.51715 7.36135 4.75945 7.20873C5.18005 6.9529 5.29009 6.55302 5.38823 6.19766L5.43373 6.01535C5.43373 6.01535 5.84083 4.32297 5.91 4.10282C5.91265 4.09056 5.91371 4.08416 5.91728 4.07831ZM7.30242 5.44356C7.20428 5.44356 7.02494 5.46807 6.86384 5.54935C6.80538 5.58026 6.75009 5.61593 6.69177 5.65147L6.74441 5.45582L6.71557 5.42287C6.37394 5.49408 6.29749 5.50361 5.98191 5.54935L5.95546 5.56746C5.91883 5.88021 5.88629 6.11534 5.75045 6.73007C5.69874 6.95663 5.64504 7.18536 5.59121 7.41138L5.60576 7.4401C5.92914 7.42254 6.02728 7.42254 6.30834 7.42731L6.33109 7.40185C6.3668 7.21355 6.37143 7.16943 6.45052 6.78807C6.48769 6.60726 6.56519 6.20997 6.60342 6.0685C6.67365 6.03501 6.74295 6.00206 6.80908 6.00206C6.96661 6.00206 6.94743 6.14352 6.94135 6.19989C6.9346 6.29452 6.8772 6.60358 6.81834 6.86894L6.77906 7.04022C6.75168 7.16671 6.72166 7.28966 6.69428 7.41505L6.70618 7.4401C7.02494 7.42254 7.12215 7.42254 7.39435 7.42731L7.42635 7.40185C7.47555 7.10776 7.48997 7.02906 7.57726 6.60086L7.62118 6.40412C7.70648 6.01908 7.74934 5.82384 7.68479 5.66481C7.61655 5.48659 7.45281 5.44356 7.30242 5.44356ZM8.84979 5.8467C8.68036 5.88019 8.5723 5.90252 8.4649 5.91695C8.35843 5.93452 8.25461 5.95045 8.09087 5.97386L8.0779 5.98598L8.066 5.99565C8.04894 6.12118 8.03703 6.2297 8.01442 6.35727C7.99524 6.4892 7.96574 6.63911 7.91773 6.8545C7.88057 7.01938 7.86139 7.07684 7.84023 7.13484C7.81959 7.19284 7.79685 7.24921 7.75505 7.41136L7.76484 7.42634L7.77304 7.44009C7.92607 7.4326 8.02619 7.42729 8.12909 7.42634C8.23186 7.42253 8.33833 7.42634 8.50313 7.42729L8.51754 7.41518L8.53302 7.40183C8.55683 7.2556 8.5604 7.21626 8.57495 7.14491C8.58936 7.06839 8.61423 6.96247 8.6752 6.67954C8.70403 6.54666 8.73617 6.41418 8.76606 6.27857C8.79715 6.14351 8.82968 6.01049 8.86063 5.8776L8.856 5.86154L8.84979 5.8467ZM8.8534 5.30315C8.69944 5.20961 8.42923 5.23929 8.24737 5.3685C8.06604 5.49513 8.04541 5.67485 8.19883 5.76961C8.35014 5.86056 8.62141 5.83346 8.80168 5.70317C8.98262 5.57382 9.00524 5.39573 8.8534 5.30315ZM9.78446 7.4694C10.0959 7.4694 10.4152 7.38104 10.6555 7.11881C10.8404 6.90614 10.9252 6.58972 10.9546 6.45942C11.0502 6.02755 10.9757 5.82591 10.8822 5.7031C10.7402 5.51589 10.4892 5.45585 10.2287 5.45585C10.0721 5.45585 9.69915 5.47177 9.40778 5.7483C9.19854 5.94776 9.10185 6.21844 9.04352 6.47794C8.98467 6.74235 8.91695 7.21834 9.34217 7.39547C9.47338 7.45347 9.66251 7.4694 9.78446 7.4694ZM9.76012 6.49768C9.83194 6.17065 9.91672 5.89616 10.1331 5.89616C10.3027 5.89616 10.315 6.10039 10.2396 6.42852C10.2261 6.50136 10.1642 6.77217 10.0805 6.88749C10.022 6.97258 9.95283 7.02419 9.87638 7.02419C9.85363 7.02419 9.71833 7.02419 9.71621 6.81737C9.71515 6.71526 9.73539 6.61096 9.76012 6.49768ZM11.7332 7.42735L11.7576 7.40189C11.7921 7.21359 11.7978 7.16934 11.8742 6.78811C11.9124 6.6073 11.9915 6.21001 12.0287 6.06855C12.0991 6.03492 12.1672 6.00197 12.2354 6.00197C12.3919 6.00197 12.3728 6.14343 12.3666 6.1998C12.3609 6.29456 12.3035 6.60349 12.2436 6.86885L12.2064 7.04013C12.178 7.16675 12.1471 7.28956 12.1197 7.41509L12.1316 7.44015C12.4514 7.42258 12.5449 7.42258 12.8187 7.42735L12.8518 7.40189C12.8998 7.10766 12.9127 7.02896 13.0027 6.6009L13.0455 6.40402C13.1312 6.01899 13.1746 5.82388 13.1111 5.66485C13.0409 5.48663 12.8761 5.4436 12.7278 5.4436C12.6296 5.4436 12.4493 5.46798 12.2891 5.5494C12.2318 5.5803 12.1744 5.61584 12.1181 5.65151L12.1672 5.45586L12.1408 5.42277C11.7993 5.49412 11.7213 5.50365 11.4061 5.5494L11.3819 5.5675C11.3437 5.88025 11.3126 6.11525 11.1768 6.73011C11.1251 6.95667 11.0714 7.1854 11.0177 7.41142L11.0321 7.44015C11.356 7.42258 11.4527 7.42258 11.7332 7.42735ZM14.0829 7.44008C14.103 7.33905 14.2225 6.74025 14.2235 6.74025C14.2235 6.74025 14.3252 6.30089 14.3314 6.28496C14.3314 6.28496 14.3635 6.23921 14.3955 6.2211H14.4425C14.8868 6.2211 15.3885 6.2211 15.7817 5.92334C16.0493 5.71911 16.2322 5.41753 16.3138 5.05101C16.335 4.96115 16.3506 4.85427 16.3506 4.74739C16.3506 4.60702 16.3232 4.46814 16.2441 4.35963C16.0436 4.07085 15.6443 4.06554 15.1833 4.06336C15.1819 4.06336 14.9561 4.06554 14.9561 4.06554C14.3661 4.07303 14.1295 4.07085 14.0323 4.05859C14.0241 4.10284 14.0086 4.18154 14.0086 4.18154C14.0086 4.18154 13.7972 5.18988 13.7972 5.19152C13.7972 5.19152 13.2915 7.33538 13.2677 7.4364C13.7828 7.43 13.994 7.43 14.0829 7.44008ZM14.4746 5.64885C14.4746 5.64885 14.6993 4.64255 14.6982 4.64636L14.7055 4.59476L14.7087 4.55541L14.7985 4.56494C14.7985 4.56494 15.2619 4.60593 15.2728 4.60702C15.4557 4.67986 15.5311 4.86761 15.4784 5.11269C15.4304 5.33666 15.2893 5.52496 15.108 5.61591C14.9586 5.69297 14.7757 5.69937 14.5872 5.69937H14.4653L14.4746 5.64885ZM15.8737 6.51632C15.8143 6.77692 15.746 7.25291 16.1692 7.42255C16.3041 7.48164 16.4249 7.49921 16.5478 7.49281C16.6776 7.48559 16.7978 7.41861 16.9092 7.32221C16.8991 7.36183 16.8891 7.40145 16.879 7.44121L16.8982 7.46667C17.2025 7.45346 17.297 7.45346 17.6267 7.45605L17.6566 7.43263C17.7047 7.14126 17.7501 6.85834 17.8752 6.30093C17.9362 6.03393 17.997 5.76953 18.0596 5.50362L18.0498 5.47435C17.7093 5.53929 17.6184 5.55318 17.2909 5.60097L17.266 5.6218C17.2627 5.6489 17.2593 5.6749 17.2561 5.70091C17.2052 5.61622 17.1314 5.54392 17.0175 5.49886C16.8719 5.4399 16.5298 5.51587 16.2358 5.79145C16.0292 5.98819 15.93 6.25777 15.8737 6.51632ZM16.5887 6.53225C16.6616 6.21107 16.7453 5.93931 16.9622 5.93931C17.0994 5.93931 17.1716 6.06961 17.1569 6.29181C17.1452 6.34722 17.1327 6.40563 17.1177 6.47167C17.096 6.56711 17.0725 6.66173 17.0496 6.7565C17.0263 6.8213 16.9992 6.88244 16.9695 6.92315C16.9137 7.00457 16.7809 7.05508 16.7044 7.05508C16.6827 7.05508 16.5489 7.05508 16.5442 6.85194C16.5432 6.75078 16.5634 6.64662 16.5887 6.53225ZM20.3225 5.47175L20.2962 5.44084C19.9593 5.5111 19.8984 5.52226 19.5889 5.56528L19.5661 5.5887C19.5651 5.59251 19.5641 5.59837 19.5625 5.60368L19.5615 5.59837C19.3311 6.14557 19.3378 6.02752 19.1503 6.45831C19.1492 6.4387 19.1492 6.42645 19.1482 6.40562L19.1012 5.47175L19.0717 5.44084C18.7188 5.5111 18.7105 5.52226 18.3846 5.56528L18.3592 5.5887C18.3556 5.59987 18.3556 5.61212 18.3535 5.62546L18.3556 5.63023C18.3964 5.84453 18.3866 5.79674 18.4275 6.13495C18.4465 6.30092 18.4719 6.46784 18.491 6.63177C18.5231 6.90611 18.5411 7.04118 18.5804 7.45985C18.3603 7.83372 18.3082 7.97518 18.0963 8.30331L18.0977 8.30658L17.9485 8.54948C17.9315 8.57507 17.916 8.59264 17.8943 8.60012C17.8705 8.61224 17.8396 8.61442 17.7966 8.61442H17.7139L17.591 9.03513L18.0126 9.04262C18.26 9.04153 18.4156 8.9224 18.4993 8.76228L18.7643 8.29473H18.7601L18.788 8.26179C18.9663 7.86667 20.3225 5.47175 20.3225 5.47175ZM15.8737 10.9972H15.6948L16.3567 8.7437H16.5762L16.6459 8.51156L16.6527 8.7697C16.6445 8.92927 16.7664 9.07074 17.0868 9.04732H17.4572L17.5847 8.6134H17.4453C17.3652 8.6134 17.328 8.59257 17.3327 8.54791L17.3259 8.28527H16.6399V8.28663C16.4181 8.2914 15.7557 8.30855 15.6216 8.34531C15.4593 8.38834 15.2883 8.51496 15.2883 8.51496L15.3555 8.28255H14.7137L14.58 8.7437L13.9093 11.0316H13.7792L13.6515 11.4624H14.9297L14.8869 11.606H15.5167L15.5585 11.4624H15.7352L15.8737 10.9972ZM15.3492 9.20158C15.2465 9.23085 15.0552 9.31962 15.0552 9.31962L15.2253 8.7437H15.7352L15.6122 9.16332C15.6122 9.16332 15.4547 9.17285 15.3492 9.20158ZM15.359 10.0243C15.359 10.0243 15.1989 10.045 15.0934 10.0696C14.9896 10.102 14.7949 10.2041 14.7949 10.2041L14.9706 9.60473H15.4831L15.359 10.0243ZM15.0733 11.0025H14.5619L14.7101 10.4967H15.22L15.0733 11.0025ZM16.305 9.60473H17.0423L16.9363 9.95791H16.1893L16.0772 10.344H16.7308L16.2359 11.0614C16.2012 11.1141 16.1701 11.1328 16.1356 11.1476C16.101 11.1657 16.0555 11.187 16.0028 11.187H15.8215L15.6969 11.6098H16.1712C16.4177 11.6098 16.5634 11.4944 16.6709 11.3428L17.0103 10.8647L17.0831 11.3502C17.0986 11.4411 17.1621 11.4944 17.2051 11.5151C17.2526 11.5396 17.3016 11.5817 17.371 11.5879C17.4453 11.5912 17.499 11.5938 17.5347 11.5938H17.7677L17.9077 11.1205H17.8158C17.763 11.1205 17.6721 11.1114 17.6566 11.0944C17.6412 11.0737 17.6412 11.0418 17.6328 10.9933L17.5589 10.5067H17.2561L17.3889 10.344H18.1345L18.2492 9.95791H17.5589L17.6664 9.60473H18.3546L18.4822 9.16917H16.4306L16.305 9.60473ZM10.0784 11.1008L10.2504 10.5115H10.9577L11.0869 10.0733H10.379L10.4871 9.71056H11.1788L11.307 9.28617H9.57617L9.45065 9.71056H9.84387L9.73899 10.0733H9.34471L9.21404 10.519H9.60712L9.37778 11.2986C9.34683 11.4018 9.39233 11.4412 9.42116 11.4891C9.45065 11.5358 9.48055 11.5667 9.54774 11.5843C9.61704 11.6002 9.66452 11.6097 9.72907 11.6097H10.5263L10.6684 11.1242L10.315 11.1742C10.2467 11.1742 10.0577 11.1658 10.0784 11.1008ZM10.1595 8.27989L9.98027 8.61333C9.94192 8.68617 9.9074 8.73138 9.87632 8.75221C9.84894 8.76977 9.79471 8.77712 9.71615 8.77712H9.62264L9.49765 9.20369H9.8082C9.95752 9.20369 10.0722 9.14732 10.127 9.11914C10.1858 9.08673 10.2013 9.10525 10.2468 9.06005L10.3517 8.96651H11.3214L11.4501 8.52238H10.7403L10.8642 8.27989H10.1595ZM11.5912 11.1094C11.5746 11.0849 11.5865 11.0417 11.6118 10.9518L11.8768 10.0487H12.8197C12.9572 10.0467 13.0564 10.0451 13.1209 10.0403C13.1902 10.0328 13.2656 10.0074 13.3477 9.96161C13.4325 9.91368 13.4759 9.86317 13.5125 9.80517C13.5534 9.7473 13.619 9.62068 13.6753 9.42544L14.0085 8.28258L13.03 8.28843C13.03 8.28843 12.7287 8.33418 12.5961 8.38469C12.4622 8.44106 12.271 8.59845 12.271 8.59845L12.3593 8.28516H11.7549L10.9087 11.1742C10.8787 11.2864 10.8585 11.3678 10.8539 11.4167C10.8523 11.4694 10.9185 11.5215 10.9613 11.5609C11.012 11.6002 11.0868 11.5938 11.1587 11.6002C11.2342 11.6061 11.3416 11.6097 11.4898 11.6097H11.9543L12.0969 11.1141L11.6811 11.1546C11.6366 11.1546 11.6045 11.1301 11.5912 11.1094ZM12.0479 9.43878H13.0382L12.9753 9.64192C12.9664 9.64669 12.9453 9.63185 12.8445 9.6441H11.9869L12.0479 9.43878ZM12.2462 8.75748H13.245L13.1731 9.00214C13.1731 9.00214 12.7024 8.99738 12.627 9.01167C12.2953 9.07076 12.1016 9.25321 12.1016 9.25321L12.2462 8.75748ZM12.9974 10.3222C12.9892 10.3525 12.9763 10.3711 12.9582 10.3849C12.9381 10.3983 12.9055 10.4031 12.857 10.4031H12.7159L12.7242 10.1557H12.1372L12.1134 11.3651C12.1125 11.4524 12.1207 11.5029 12.1827 11.5433C12.2447 11.5938 12.4359 11.6002 12.6931 11.6002H13.0609L13.1937 11.1475L12.8735 11.1656L12.767 11.172C12.7525 11.1656 12.7386 11.1598 12.7231 11.1439C12.7096 11.1301 12.6869 11.1386 12.6906 11.0513L12.6931 10.7413L13.0289 10.727C13.2103 10.727 13.2878 10.6662 13.3539 10.6084C13.417 10.553 13.4376 10.4892 13.4614 10.4031L13.5178 10.1286H13.0563L12.9974 10.3222Z" fill="#FEFEFE"/>
</svg>
