<svg width="38" height="13" viewBox="0 0 38 13" fill="none" xmlns="http://www.w3.org/2000/svg">
<path fill-rule="evenodd" clip-rule="evenodd" d="M10.1148 12.4066H6.95377L4.58336 3.09733C4.47085 2.66911 4.23195 2.29053 3.88055 2.1121C3.00359 1.66371 2.03724 1.30685 0.983032 1.12687V0.768466H6.07527C6.77807 0.768466 7.30517 1.30685 7.39303 1.93212L8.62293 8.6472L11.7825 0.768466H14.8557L10.1148 12.4066ZM16.6127 12.4066H13.6273L16.0856 0.768466H19.0709L16.6127 12.4066ZM22.9335 3.99252C23.0214 3.3657 23.5485 3.00729 24.1635 3.00729C25.1298 2.9173 26.1825 3.09728 27.061 3.54413L27.5881 1.03839C26.7096 0.679979 25.7432 0.5 24.8663 0.5C21.9687 0.5 19.8603 2.11205 19.8603 4.34938C19.8603 6.05142 21.3538 6.94511 22.408 7.4835C23.5485 8.02033 23.9878 8.37874 23.8999 8.91557C23.8999 9.72082 23.0214 10.0792 22.1444 10.0792C21.0902 10.0792 20.036 9.81081 19.0712 9.36241L18.5441 11.8697C19.5983 12.3166 20.7388 12.4965 21.793 12.4965C25.042 12.585 27.061 10.9745 27.061 8.55716C27.061 5.51304 22.9335 5.33461 22.9335 3.99252ZM37.5084 12.4066L35.138 0.768466H32.5919C32.0648 0.768466 31.5377 1.12687 31.362 1.66371L26.9726 12.4066H30.0458L30.6592 10.7061H34.4352L34.7866 12.4066H37.5084ZM33.0312 3.9027L33.9082 8.28891H31.4499L33.0312 3.9027Z" fill="white"/>
</svg>
