<svg width="281" height="96" viewBox="0 0 281 96" fill="none" xmlns="http://www.w3.org/2000/svg">
<g clip-path="url(#clip0_1_154)">
<path d="M139.832 33.7027C139.832 32.9379 141.165 32.9379 141.165 33.7027V44.3218C141.165 45.1013 139.832 45.1013 139.832 44.3218V33.7027ZM145.249 33.9674C145.349 33.2026 146.683 33.335 146.566 34.0998L145.182 44.1306C145.082 44.8954 143.749 44.763 143.866 43.9982L145.249 33.9674ZM134.431 34.1145C134.331 33.3497 135.648 33.2026 135.748 33.9822L137.131 44.0129C137.231 44.7777 135.915 44.9248 135.814 44.1453L134.431 34.1145ZM137.698 23.7161H143.316C144.566 23.7161 145.599 24.6279 145.599 25.731V26.5694H150.933C153.15 26.5694 154.3 28.9521 152.7 30.3493C152.333 30.6729 151.867 30.8935 151.333 30.967L150.433 44.9248C150.3 46.9839 148.516 48.69 146.133 48.69H135.064C132.697 48.69 130.93 46.9839 130.78 44.9395L129.68 30.9817C127.68 30.717 126.813 28.5255 128.28 27.2312C128.73 26.8194 129.364 26.5841 130.064 26.5841H135.398C135.398 25.7016 135.281 25.0104 136.065 24.3338C136.498 23.9367 137.065 23.7161 137.698 23.7161ZM143.316 24.8927H137.698C137.181 24.8927 136.748 25.2751 136.748 25.731V26.5694H144.249V25.731C144.249 25.2604 143.832 24.8927 143.316 24.8927ZM150 30.9817H131.031L132.114 44.8366C132.231 46.2632 133.414 47.4987 135.081 47.4987H146.149C147.799 47.4987 149.016 46.2779 149.116 44.8513L150 30.9817ZM150.933 27.7313H130.08C129.047 27.7313 128.497 28.8344 129.247 29.4963C129.464 29.6875 129.747 29.8051 130.08 29.8051H150.933C151.967 29.8051 152.517 28.702 151.767 28.0402C151.55 27.849 151.25 27.7313 150.933 27.7313ZM141.582 53.676L146.516 51.161C146.966 50.9403 147.516 51.2198 147.516 51.6757V52.4847H165.402C166.135 52.4847 167.035 52.3229 167.652 51.9993C167.685 51.9846 167.635 52.014 167.702 51.9699C169.419 51.0874 170.386 49.1754 169.836 47.4399C169.686 46.9545 169.569 46.8074 169.319 46.3809L161.685 34.7175C160.985 33.7615 161.451 32.3937 162.551 31.9378C163.685 31.4524 164.818 31.7318 165.519 32.6437C165.552 32.6732 165.569 32.7173 165.585 32.7467L173.22 44.3953C173.62 44.9101 174.003 45.822 174.186 46.4103C174.82 48.44 174.486 50.6462 173.253 52.47C172.436 53.7054 171.286 54.7644 169.886 55.4557L169.852 55.4704C168.502 56.1322 166.969 56.4852 165.419 56.4852H147.516V56.7205C147.516 57.1471 146.983 57.4853 146.466 57.2059L141.582 54.7203C141.132 54.4702 141.149 53.8966 141.582 53.676ZM144.716 53.4407L143.249 54.1908L146.199 55.691C146.266 55.338 146.683 55.1174 147.083 55.235L147.399 55.2792H165.419C166.769 55.2792 168.052 54.9997 169.219 54.4261L169.286 54.3967C169.836 54.132 170.436 53.7201 170.886 53.3083C171.436 52.8229 171.719 52.4553 172.136 51.8522C173.553 49.6755 173.536 47.2192 172.119 45.0425L164.418 33.2762C164.018 32.6584 162.952 32.7614 162.735 33.4674C162.668 33.6733 162.701 33.8939 162.818 34.0851L170.503 45.822C171.903 47.9105 171.469 50.455 169.569 52.1611C169.202 52.4847 168.802 52.7641 168.369 52.9847L168.352 52.9994C168.369 52.9994 168.386 52.9847 168.352 52.9994C168.036 53.1907 167.319 53.4113 166.919 53.4995C166.435 53.6025 165.935 53.6613 165.419 53.6613L147.233 53.676C147.066 53.7054 147.033 53.7495 146.866 53.7495C146.499 53.7495 146.199 53.4848 146.199 53.1612V52.7053L144.716 53.4407ZM125.13 25.8046C124.13 27.3342 121.529 27.0253 121.012 25.3339C120.862 24.8486 120.929 24.3044 121.246 23.8337L132.647 6.40488C136.181 1.00709 144.999 1.09534 148.4 6.49313L159.734 23.819L160.218 23.569C160.668 23.3337 161.218 23.6278 161.218 24.0838V29.1138C161.218 29.5404 160.685 29.8787 160.168 29.5992L155.3 27.0842C154.85 26.8635 154.85 26.2899 155.3 26.0693L155.851 25.7899L144.466 8.39045C143.849 7.44914 142.932 6.77258 141.732 6.50784C140.582 6.24309 139.248 6.36076 138.198 6.89024C137.498 7.24323 136.948 7.75801 136.548 8.39045L125.13 25.8046ZM123.429 25.5987C123.663 25.5398 123.863 25.4222 123.98 25.2163L135.381 7.78742C135.898 6.9932 136.631 6.31663 137.531 5.86069C138.848 5.16942 140.582 5.02234 142.065 5.34591C143.566 5.65478 144.849 6.59608 145.616 7.77271C145.632 7.78742 145.632 7.80213 145.649 7.81684L145.666 7.84625L157.151 25.4075L157.284 25.5545C157.567 25.834 157.501 26.2752 157.134 26.4664L156.967 26.5547L159.901 28.0549V25.0692L159.651 25.1721C159.301 25.2604 158.934 25.0839 158.818 24.775L158.751 24.6279L147.249 7.05203C144.532 2.59554 136.915 2.21314 133.798 6.97849L122.379 24.4073C121.996 25.0251 122.629 25.7899 123.429 25.5987ZM133.631 52.4847C135.631 52.4847 136.648 54.632 135.231 55.8822C134.831 56.2352 134.264 56.4705 133.631 56.4705H115.595C108.427 56.4705 104.244 49.5284 107.777 44.41L107.811 44.3806L115.295 32.9379L114.728 32.6437C114.278 32.4231 114.278 31.8495 114.728 31.6289L119.662 29.1138C120.112 28.8932 120.662 29.1727 120.662 29.6286V34.6587C120.662 35.0852 120.129 35.4235 119.612 35.1441L119.196 34.9382L111.711 46.3809C111.061 47.3957 110.811 48.3665 111.161 49.5284C111.728 51.3227 113.428 52.5288 115.595 52.5288H133.631V52.4847ZM134.281 53.8966C134.114 53.7495 133.881 53.6613 133.631 53.6613H115.595C113.411 53.6613 111.578 52.72 110.478 51.058C109.378 49.3813 109.411 47.5281 110.478 45.8514L110.494 45.8073C110.494 45.7926 110.511 45.7926 110.511 45.7779L118.162 34.0851L118.245 33.9086C118.362 33.5409 118.846 33.3791 119.212 33.5703L119.296 33.6145V30.6141L116.362 32.1143L116.679 32.2907C116.945 32.5114 116.945 32.8791 116.695 33.1144L116.562 33.2615L108.961 44.9542L108.911 45.0131C108.211 46.1456 107.827 47.1604 107.827 48.4547C107.827 50.8815 109.344 53.1465 111.728 54.382C112.911 54.985 114.228 55.2792 115.595 55.2792H133.631C134.448 55.2939 134.848 54.4114 134.281 53.8966Z" fill="white"/>
</g>
<path d="M47.0235 91L41.5995 74.512H44.2875L48.3435 87.088L52.4715 74.512H55.1595L59.2875 87.088L63.3435 74.512H66.0315L60.6075 91H58.1835L53.8395 77.872L49.4475 91H47.0235ZM73.7133 78.304C77.0493 78.304 78.8973 80.416 78.8973 83.488V91H76.5693V89.296C75.6573 90.592 73.9533 91.288 72.4413 91.288C69.8013 91.288 67.8573 89.752 67.8573 87.328C67.8573 84.856 70.0893 83.2 72.8253 83.2C74.0493 83.2 75.3693 83.464 76.5693 83.872V83.488C76.5693 81.928 75.8493 80.272 73.3773 80.272C72.1533 80.272 70.9533 80.752 69.8733 81.304L69.0093 79.552C70.7853 78.664 72.3453 78.304 73.7133 78.304ZM72.8973 89.416C74.4333 89.416 76.1613 88.648 76.5693 87.112V85.456C75.5613 85.144 74.4093 84.976 73.1853 84.976C71.5293 84.976 70.1373 85.912 70.1373 87.256C70.1373 88.6 71.3373 89.416 72.8973 89.416ZM86.8215 91.288C84.9975 91.288 83.0055 90.64 81.5175 89.44L82.6455 87.736C83.9655 88.696 85.3815 89.248 86.8455 89.248C88.2375 89.248 89.1975 88.6 89.1975 87.64C89.1975 86.488 87.9255 86.128 86.3895 85.696C83.5335 84.904 82.1175 84.088 82.1175 82.072C82.0935 79.792 83.9895 78.304 86.6295 78.304C88.2375 78.304 89.8695 78.856 91.2135 79.744L90.1575 81.496C88.9575 80.752 87.7095 80.344 86.6295 80.344C85.4055 80.344 84.4455 80.872 84.4455 81.808C84.4455 82.768 85.2135 83.056 87.3015 83.704C89.3415 84.304 91.5255 84.976 91.5255 87.448C91.5255 89.8 89.5335 91.288 86.8215 91.288ZM100.095 88.768L100.959 90.4C100.287 90.952 99.3746 91.288 98.4866 91.288C96.5666 91.288 95.2226 89.896 95.2226 87.904V80.608H93.3506V78.592H95.2226V75.184H97.5506V78.592H100.479V80.608H97.5506V87.736C97.5506 88.6 98.1266 89.224 98.8226 89.224C99.3506 89.224 99.8306 89.032 100.095 88.768ZM109.068 89.176C110.364 89.176 111.876 88.6 112.62 87.832L114.108 89.368C113.004 90.544 110.844 91.288 109.092 91.288C105.636 91.288 102.708 88.576 102.708 84.76C102.708 81.04 105.468 78.304 108.9 78.304C112.692 78.304 114.876 81.184 114.876 85.624H105.108C105.42 87.688 106.932 89.176 109.068 89.176ZM108.996 80.416C107.076 80.416 105.516 81.712 105.132 83.728H112.572C112.308 81.808 111.132 80.416 108.996 80.416ZM137.626 79.888C137.626 82.432 135.898 84.376 133.402 85.024L137.602 91H134.818L130.786 85.264H126.994V91H124.57V74.512H131.506C134.986 74.512 137.626 76.744 137.626 79.888ZM126.994 76.768V83.008H131.17C133.546 83.008 135.154 81.832 135.154 79.888C135.154 77.944 133.546 76.768 131.17 76.768H126.994ZM146.006 89.176C147.302 89.176 148.814 88.6 149.558 87.832L151.046 89.368C149.942 90.544 147.782 91.288 146.03 91.288C142.574 91.288 139.646 88.576 139.646 84.76C139.646 81.04 142.406 78.304 145.838 78.304C149.63 78.304 151.814 81.184 151.814 85.624H142.046C142.358 87.688 143.87 89.176 146.006 89.176ZM145.934 80.416C144.014 80.416 142.454 81.712 142.07 83.728H149.51C149.246 81.808 148.07 80.416 145.934 80.416ZM164.12 74.224H166.472V91H164.12V88.84C163.16 90.376 161.624 91.288 159.704 91.288C156.44 91.288 153.992 88.6 153.992 84.784C153.992 80.992 156.44 78.304 159.704 78.304C161.624 78.304 163.16 79.216 164.12 80.728V74.224ZM160.28 89.224C162.512 89.224 164.12 87.376 164.12 84.784C164.12 82.192 162.512 80.368 160.28 80.368C158 80.368 156.392 82.192 156.392 84.784C156.392 87.376 158 89.224 160.28 89.224ZM178.581 78.592H180.957V91H178.581V89.2C177.837 90.424 176.325 91.288 174.645 91.288C171.909 91.288 169.989 89.296 169.989 86.488V78.592H172.317V86.08C172.317 87.928 173.493 89.224 175.173 89.224C176.901 89.224 178.389 88.096 178.581 86.632V78.592ZM190.26 91.288C186.732 91.288 183.732 88.312 183.732 84.784C183.732 81.256 186.732 78.304 190.284 78.304C192.06 78.304 193.668 79.048 194.844 80.224L193.236 81.712C192.492 80.872 191.412 80.368 190.26 80.368C188.004 80.368 186.132 82.384 186.132 84.784C186.132 87.208 188.004 89.224 190.284 89.224C191.436 89.224 192.54 88.696 193.308 87.832L194.916 89.296C193.716 90.52 192.108 91.288 190.26 91.288ZM203.266 88.768L204.13 90.4C203.458 90.952 202.546 91.288 201.658 91.288C199.738 91.288 198.394 89.896 198.394 87.904V80.608H196.522V78.592H198.394V75.184H200.722V78.592H203.65V80.608H200.722V87.736C200.722 88.6 201.298 89.224 201.994 89.224C202.522 89.224 203.002 89.032 203.266 88.768ZM207.728 76.528C206.912 76.528 206.288 75.856 206.288 75.088C206.288 74.344 206.912 73.672 207.728 73.672C208.496 73.672 209.144 74.344 209.144 75.088C209.144 75.856 208.496 76.528 207.728 76.528ZM206.528 91V78.592H208.904V91H206.528ZM218.221 91.288C214.669 91.288 211.669 88.312 211.669 84.784C211.669 81.256 214.669 78.304 218.221 78.304C221.749 78.304 224.725 81.256 224.725 84.784C224.725 88.312 221.749 91.288 218.221 91.288ZM218.221 89.224C220.453 89.224 222.349 87.208 222.349 84.784C222.349 82.384 220.453 80.368 218.221 80.368C215.941 80.368 214.045 82.384 214.045 84.784C214.045 87.208 215.941 89.224 218.221 89.224ZM233.817 78.304C236.553 78.304 238.473 80.296 238.473 83.104V91H236.145V83.512C236.145 81.664 234.969 80.368 233.289 80.368C231.561 80.368 230.073 81.496 229.881 82.96V91H227.505V78.592H229.881V80.392C230.625 79.168 232.137 78.304 233.817 78.304Z" fill="white"/>
<defs>
<clipPath id="clip0_1_154">
<rect width="68" height="60" fill="white" transform="translate(106.5)"/>
</clipPath>
</defs>
</svg>
