<svg width="58" height="58" viewBox="0 0 58 58" fill="none" xmlns="http://www.w3.org/2000/svg">
<rect x="0.5" y="0.5" width="57" height="57" rx="28.5" stroke="white" stroke-opacity="0.25"/>
<path d="M38.8008 25C38.8008 25 38.6055 23.6211 38.0039 23.0156C37.2422 22.2188 36.3906 22.2148 36 22.168C33.2031 21.9648 29.0039 21.9648 29.0039 21.9648H28.9961C28.9961 21.9648 24.7969 21.9648 22 22.168C21.6094 22.2148 20.7578 22.2188 19.9961 23.0156C19.3945 23.6211 19.2031 25 19.2031 25C19.2031 25 19 26.6211 19 28.2383V29.7539C19 31.3711 19.1992 32.9922 19.1992 32.9922C19.1992 32.9922 19.3945 34.3711 19.9922 34.9766C20.7539 35.7734 21.7539 35.7461 22.1992 35.832C23.8008 35.9844 29 36.0312 29 36.0312C29 36.0312 33.2031 36.0234 36 35.8242C36.3906 35.7773 37.2422 35.7734 38.0039 34.9766C38.6055 34.3711 38.8008 32.9922 38.8008 32.9922C38.8008 32.9922 39 31.375 39 29.7539V28.2383C39 26.6211 38.8008 25 38.8008 25ZM26.9336 31.5938V25.9727L32.3359 28.793L26.9336 31.5938Z" fill="white"/>
</svg>
